<svg width="232" height="215" viewBox="0 0 232 215" fill="none" xmlns="http://www.w3.org/2000/svg">
<circle cx="106.747" cy="127.747" r="86.747" fill="#242A38"/>
<path d="M45.2532 53.2145C45.2532 47.7615 49.6736 43.3411 55.1266 43.3411H67.0253V46.0942C67.0253 47.3526 68.0454 48.3727 69.3038 48.3727H100.696C101.955 48.3727 102.975 47.3526 102.975 46.0942V43.3411H114.873C120.326 43.3411 124.747 47.7615 124.747 53.2145V193.974C124.747 199.427 120.326 203.847 114.873 203.847H55.1266C49.6736 203.847 45.2532 199.427 45.2532 193.974V53.2145Z" fill="#0E0F18" stroke="#DCDFE6" stroke-width="0.506329"/>
<rect x="52.3411" y="177.011" width="65.3165" height="11.6456" rx="2.78481" stroke="#F5F8FF" stroke-width="0.506329"/>
<rect x="52.2532" y="77.2532" width="65.4937" height="28.4937" rx="2.78481" stroke="#F5F8FF" stroke-width="0.506329"/>
<rect x="52.2532" y="137.253" width="29.4937" height="28.4937" rx="2.78481" stroke="#F5F8FF" stroke-width="0.506329"/>
<rect x="88.2532" y="137.253" width="29.4937" height="28.4937" rx="2.78481" stroke="#F5F8FF" stroke-width="0.506329"/>
<rect x="52.343" y="58.5305" width="65.3165" height="9.62025" rx="4.81013" stroke="#F5F8FF" stroke-width="0.506329"/>
<path d="M110.207 65.8529C111.669 65.8529 112.855 64.6673 112.855 63.2048C112.855 61.7422 111.669 60.5566 110.207 60.5566C108.744 60.5566 107.559 61.7422 107.559 63.2048C107.559 64.6673 108.744 65.8529 110.207 65.8529Z" stroke="#F5F8FF" stroke-width="0.418125" stroke-linecap="round" stroke-linejoin="round"/>
<path d="M113.135 66.1317L112.577 65.5742" stroke="#F5F8FF" stroke-width="0.418125" stroke-linecap="round" stroke-linejoin="round"/>
<path d="M52 114H116.5M52 118.5H116.5M52 123.5H116.5M52 128H93" stroke="#F5F8FF" stroke-width="0.5"/>
<path d="M125.055 50.0128C123.309 34.8774 163.621 50.0128 188.361 26V38.3702V166.438C173.808 186.085 133.059 175.898 125.055 197V50.0128Z" fill="#B9FAF8" stroke="#B4B4B4" stroke-width="0.6"/>
<path d="M188.306 43.4629H196.311V182.446L125 196.271" stroke="#F5F8FF" stroke-width="0.6"/>
<path d="M196.31 50.7402H201.404V187.54L125.727 196.272" stroke="#F5F8FF" stroke-width="0.6"/>
<circle cx="12.9944" cy="12.9944" r="12.7444" transform="matrix(-0.990818 0.135201 0.135201 0.990818 65.75 2)" stroke="#F5F8FF" stroke-width="0.5"/>
<circle cx="12.9944" cy="12.9944" r="12.9944" transform="matrix(-0.990818 0.135201 0.135201 0.990818 66.75 0)" fill="#FFE072"/>
<path d="M51.6088 15.5019C53.0977 17.1394 56.673 19.2285 59.0628 14.4848" stroke="#090A13" stroke-width="0.683914"/>
<ellipse cx="0.683914" cy="1.36783" rx="0.683914" ry="1.36783" transform="matrix(-0.990818 0.135201 0.135201 0.990818 61.7605 8.96289)" fill="#090A13"/>
<ellipse cx="0.683914" cy="1.36783" rx="0.683914" ry="1.36783" transform="matrix(-0.990818 0.135201 0.135201 0.990818 49.5637 10.6289)" fill="#090A13"/>
<path d="M21.7848 173.27C20.2541 173.265 18.6473 172.952 17.438 171.954C16.4214 171.115 15.8176 169.924 15.525 168.655C15.3423 167.864 15.2764 167.054 15.2814 166.244C15.2814 166.074 15.1461 166 15.0142 166C14.8823 166 14.747 166.074 14.747 166.244C14.7537 167.625 14.5592 169.055 13.9148 170.296C13.3008 171.478 12.2894 172.373 11.036 172.828C10.1413 173.153 9.19074 173.268 8.24356 173.271C8.07442 173.271 8 173.408 8 173.54C8 173.672 8.07442 173.809 8.24356 173.809C9.77427 173.814 11.3811 174.127 12.5904 175.125C13.607 175.964 14.2108 177.155 14.5034 178.423C14.6861 179.215 14.7503 180.025 14.747 180.835C14.747 181.004 14.8823 181.079 15.0142 181.079C15.1461 181.079 15.2814 181.004 15.2814 180.835C15.2747 179.453 15.4692 178.024 16.1136 176.783C16.7276 175.6 17.739 174.706 18.9923 174.251C19.8871 173.926 20.8376 173.811 21.7848 173.807C21.954 173.807 22.0284 173.67 22.0284 173.539C22.0284 173.407 21.954 173.27 21.7848 173.27ZM17.1318 174.721C16.0307 175.605 15.3592 176.904 15.0413 178.263C15.0311 178.303 15.0243 178.345 15.0142 178.386C14.8704 177.733 14.6539 177.099 14.3427 176.505C13.6695 175.22 12.5532 174.269 11.195 173.77C10.9379 173.676 10.6741 173.599 10.4068 173.537C11.305 173.322 12.1574 172.948 12.8949 172.356C13.996 171.472 14.6675 170.173 14.9854 168.814C14.9956 168.774 15.0024 168.732 15.0125 168.691C15.1563 169.344 15.3728 169.978 15.684 170.572C16.3572 171.857 17.4735 172.808 18.8317 173.307C19.0888 173.402 19.3526 173.478 19.6198 173.54C18.7217 173.757 17.8693 174.129 17.1318 174.721Z" fill="#FFE072"/>
<path d="M36.4296 174.612C35.4371 174.609 34.3952 174.406 33.6111 173.759C32.9519 173.215 32.5604 172.443 32.3707 171.62C32.2522 171.107 32.2095 170.582 32.2128 170.056C32.2128 169.947 32.125 169.898 32.0395 169.898C31.9539 169.898 31.8662 169.947 31.8662 170.056C31.8706 170.952 31.7445 171.879 31.3266 172.684C30.9285 173.451 30.2727 174.031 29.46 174.326C28.8799 174.536 28.2635 174.611 27.6494 174.613C27.5397 174.613 27.4915 174.702 27.4915 174.788C27.4915 174.873 27.5397 174.962 27.6494 174.962C28.6419 174.965 29.6838 175.168 30.4679 175.815C31.127 176.359 31.5186 177.131 31.7083 177.954C31.8267 178.467 31.8684 178.992 31.8662 179.518C31.8662 179.627 31.9539 179.676 32.0395 179.676C32.125 179.676 32.2128 179.627 32.2128 179.518C32.2084 178.622 32.3345 177.695 32.7523 176.89C33.1504 176.123 33.8063 175.543 34.6189 175.248C35.1991 175.038 35.8154 174.963 36.4296 174.961C36.5393 174.961 36.5875 174.872 36.5875 174.786C36.5875 174.701 36.5393 174.612 36.4296 174.612ZM33.4126 175.553C32.6986 176.127 32.2632 176.969 32.057 177.85C32.0505 177.876 32.0461 177.903 32.0395 177.93C31.9463 177.506 31.8059 177.095 31.6041 176.71C31.1676 175.877 30.4438 175.26 29.5631 174.937C29.3964 174.875 29.2253 174.826 29.0521 174.785C29.6344 174.646 30.1872 174.404 30.6653 174.02C31.3793 173.446 31.8147 172.604 32.0208 171.723C32.0274 171.697 32.0318 171.67 32.0384 171.643C32.1316 172.067 32.272 172.478 32.4738 172.863C32.9103 173.696 33.6341 174.313 34.5147 174.636C34.6814 174.698 34.8525 174.747 35.0258 174.788C34.4435 174.928 33.8907 175.169 33.4126 175.553Z" fill="#FFE072"/>
<path d="M37.068 198.694C34.5617 198.686 31.9308 198.173 29.9506 196.539C28.2862 195.166 27.2975 193.216 26.8184 191.139C26.5193 189.843 26.4113 188.516 26.4196 187.19C26.4196 186.913 26.1981 186.791 25.9821 186.791C25.7661 186.791 25.5445 186.913 25.5445 187.19C25.5556 189.452 25.2371 191.793 24.1819 193.825C23.1767 195.761 21.5205 197.226 19.4684 197.971C18.0034 198.503 16.447 198.691 14.8961 198.697C14.6192 198.697 14.4973 198.921 14.4973 199.137C14.4973 199.353 14.6192 199.577 14.8961 199.577C17.4024 199.586 20.0334 200.098 22.0135 201.732C23.6779 203.106 24.6666 205.055 25.1457 207.132C25.4448 208.428 25.55 209.755 25.5445 211.082C25.5445 211.358 25.7661 211.48 25.9821 211.48C26.1981 211.48 26.4196 211.358 26.4196 211.082C26.4086 208.819 26.727 206.479 27.7822 204.446C28.7875 202.51 30.4436 201.045 32.4957 200.3C33.9607 199.768 35.5172 199.58 37.068 199.575C37.345 199.575 37.4668 199.35 37.4668 199.134C37.4668 198.918 37.345 198.694 37.068 198.694ZM29.4494 201.07C27.6465 202.519 26.547 204.645 26.0264 206.869C26.0098 206.936 25.9987 207.005 25.9821 207.071C25.7467 206.002 25.3922 204.964 24.8826 203.992C23.7804 201.887 21.9526 200.331 19.7287 199.514C19.3078 199.359 18.8758 199.234 18.4382 199.132C19.9087 198.78 21.3045 198.168 22.512 197.198C24.3149 195.75 25.4143 193.623 25.935 191.399C25.9516 191.333 25.9627 191.264 25.9793 191.197C26.2147 192.266 26.5692 193.305 27.0788 194.277C28.181 196.381 30.0088 197.938 32.2326 198.755C32.6536 198.91 33.0856 199.035 33.5232 199.137C32.0526 199.492 30.6568 200.101 29.4494 201.07Z" fill="#FFE072"/>
<path d="M3.24518 58.4987C3.03038 57.7819 3.05473 57.1134 3.3184 56.5184C3.60616 55.8621 4.10907 55.4572 4.48023 55.2333C4.4738 54.4111 4.80276 53.2497 6.09503 52.7545C7.04177 52.3921 8.33772 52.5714 9.94703 53.2936C11.0798 53.7986 11.9604 54.3919 11.9965 54.4162L12.0009 54.4179C12.2047 54.5434 12.4182 54.6828 12.6344 54.8283C12.762 54.5545 12.9872 53.8382 13.0855 52.0652C13.2042 49.956 13.8 48.54 14.8679 47.8557C15.9898 47.1369 17.183 47.5138 17.5251 47.6479C17.854 47.7769 18.1033 48.0316 18.2202 48.3658C18.4851 49.1225 18.0188 50.144 17.7682 50.6023C17.7382 52.3819 17.868 56.8251 18.8262 58.4205C18.8456 58.4483 18.8589 58.4789 18.8723 58.5094C19.1089 59.0931 19.2002 59.6602 19.2262 60.1359C19.54 60.0971 19.8648 60.1334 20.1806 60.2572L22.8559 61.3064C23.8646 61.702 24.3587 62.8421 23.9648 63.8464L21.1698 70.9733C20.7742 71.982 19.6342 72.4761 18.6298 72.0822L15.9545 71.033C15.5642 70.8799 15.2483 70.6144 15.0327 70.2869L13.9538 70.0055C13.7874 69.9655 10.8412 69.2199 7.98207 68.0329C7.44468 67.8677 6.94488 67.697 6.48876 67.5181C5.70371 67.2102 5.04361 66.8805 4.52162 66.5341C3.29138 65.7227 2.59836 64.793 2.46199 63.773C2.35787 62.9934 2.60727 62.3575 2.82252 61.9763C2.25936 60.8446 2.44814 59.9117 2.71964 59.3097C2.87651 58.9613 3.07413 58.6897 3.24518 58.4987ZM19.0942 70.8981C19.4495 71.0374 19.8481 70.8597 19.9857 70.5089L22.7824 63.3776C22.9217 63.0224 22.7441 62.6238 22.3932 62.4862L19.7179 61.437C19.3627 61.2977 18.9641 61.4753 18.8265 61.8262L16.0314 68.953C15.8921 69.3083 16.0698 69.7069 16.4206 69.8445L19.096 70.8937L19.0942 70.8981ZM4.56917 58.4259C4.6777 58.6911 4.59754 58.9987 4.36776 59.1717C4.36604 59.1761 4.06582 59.4126 3.87877 59.825C3.62275 60.3875 3.69953 61.0046 4.10817 61.6658C4.25238 61.9046 4.22907 62.2092 4.04503 62.4204C4.04331 62.4247 3.62768 62.9297 3.71969 63.5983C3.80713 64.2399 4.31269 64.8733 5.22131 65.4726C5.94805 65.9549 7.01491 66.4087 8.38068 66.8229L8.44209 66.847C11.238 68.0144 14.2333 68.764 14.2657 68.7716L14.2701 68.7733L14.7337 68.8944C14.7555 68.7613 14.794 68.6246 14.8456 68.493L17.6423 61.3618C17.7163 61.1732 17.8192 61.001 17.9389 60.8506C17.9752 60.5258 18.0122 59.7863 17.7131 59.0264C16.3562 56.6928 16.4966 50.6704 16.5027 50.4097C16.5038 50.3038 16.5346 50.1995 16.5917 50.1055C16.8589 49.6435 17.0682 49.0324 17.0334 48.8113C16.7993 48.7245 16.1463 48.5443 15.5645 48.9183C14.8746 49.3612 14.4587 50.4733 14.3666 52.1274C14.228 54.6487 13.8284 55.8481 13.0421 56.1369C12.6512 56.2821 12.2601 56.1439 12.019 55.933C11.7755 55.7667 11.5418 55.6143 11.316 55.4802C11.3002 55.4689 11.28 55.456 11.2642 55.4447C10.033 54.6228 7.69136 53.497 6.5544 53.9316C5.58934 54.302 5.75658 55.3594 5.77748 55.4739C5.84343 55.7831 5.66963 56.0844 5.37294 56.1957C5.36683 56.1984 4.73605 56.452 4.48536 57.0267C4.31473 57.4102 4.34241 57.8815 4.56917 58.4259Z" fill="#647EDD"/>
<path d="M127.892 16.2699V33.1008L132.878 27.2091C134.413 25.395 136.669 24.3487 139.045 24.3487H173.672C178.878 24.3487 183.098 20.1288 183.098 14.9234C183.098 9.71791 178.878 5.49805 173.672 5.49805H138.664C132.715 5.49805 127.892 10.3208 127.892 16.2699Z" stroke="#FFF9F9" stroke-width="0.903614"/>
<path d="M126 12.7718V29.6027L130.985 23.711C132.52 21.8969 134.776 20.8506 137.153 20.8506H171.78C176.986 20.8506 181.205 16.6308 181.205 11.4253C181.205 6.21986 176.986 2 171.78 2H136.772C130.823 2 126 6.8227 126 12.7718Z" fill="#647EDD"/>
<path d="M142.616 9.59631L140.132 9.21692L139.019 6.84569C138.936 6.66862 138.645 6.66862 138.562 6.84569L137.449 9.21692L134.965 9.59631C134.92 9.60335 134.877 9.6229 134.841 9.65279C134.806 9.68269 134.779 9.72179 134.764 9.76579C134.75 9.80979 134.747 9.85699 134.758 9.90222C134.768 9.94744 134.791 9.98894 134.823 10.0221L136.627 11.8716L136.201 14.4862C136.193 14.533 136.199 14.5809 136.217 14.6246C136.236 14.6683 136.266 14.7059 136.305 14.7332C136.343 14.7605 136.389 14.7763 136.436 14.7789C136.484 14.7815 136.531 14.7707 136.572 14.7478L138.791 13.5218L141.009 14.7481C141.05 14.771 141.098 14.7818 141.145 14.7792C141.192 14.7767 141.238 14.7608 141.277 14.7335C141.315 14.7063 141.346 14.6686 141.364 14.625C141.382 14.5813 141.388 14.5333 141.38 14.4866L140.954 11.8719L142.758 10.0225C142.791 9.98928 142.813 9.94776 142.824 9.90249C142.834 9.85722 142.832 9.80995 142.817 9.76589C142.802 9.72183 142.776 9.68268 142.74 9.65276C142.705 9.62284 142.662 9.60331 142.616 9.59631Z" fill="#FFC107"/>
<path d="M153.388 9.59631L150.904 9.21692L149.791 6.84569C149.708 6.66862 149.417 6.66862 149.334 6.84569L148.221 9.21692L145.737 9.59631C145.691 9.60335 145.648 9.6229 145.613 9.65279C145.577 9.68269 145.551 9.72179 145.536 9.76579C145.522 9.80979 145.519 9.85699 145.53 9.90222C145.54 9.94744 145.563 9.98894 145.595 10.0221L147.399 11.8716L146.973 14.4862C146.965 14.533 146.971 14.5809 146.989 14.6246C147.008 14.6683 147.038 14.7059 147.077 14.7332C147.115 14.7605 147.161 14.7763 147.208 14.7789C147.256 14.7815 147.303 14.7707 147.344 14.7478L149.562 13.5218L151.781 14.7481C151.822 14.771 151.869 14.7818 151.917 14.7792C151.964 14.7767 152.01 14.7608 152.048 14.7335C152.087 14.7063 152.117 14.6686 152.136 14.625C152.154 14.5813 152.16 14.5333 152.152 14.4866L151.726 11.8719L153.53 10.0225C153.563 9.98928 153.585 9.94776 153.596 9.90249C153.606 9.85722 153.604 9.80995 153.589 9.76589C153.574 9.72183 153.548 9.68268 153.512 9.65276C153.477 9.62284 153.434 9.60331 153.388 9.59631Z" fill="#FFC107"/>
<path d="M164.159 9.59631L161.676 9.21692L160.562 6.84569C160.479 6.66862 160.189 6.66862 160.106 6.84569L158.993 9.21692L156.509 9.59631C156.463 9.60335 156.42 9.6229 156.385 9.65279C156.349 9.68269 156.323 9.72179 156.308 9.76579C156.293 9.80979 156.291 9.85699 156.301 9.90222C156.312 9.94744 156.334 9.98894 156.367 10.0221L158.171 11.8716L157.744 14.4862C157.737 14.533 157.743 14.5809 157.761 14.6246C157.779 14.6683 157.81 14.7059 157.848 14.7332C157.887 14.7605 157.933 14.7763 157.98 14.7789C158.027 14.7815 158.074 14.7707 158.116 14.7478L160.334 13.5218L162.553 14.7481C162.594 14.771 162.641 14.7818 162.688 14.7792C162.736 14.7767 162.781 14.7608 162.82 14.7335C162.859 14.7063 162.889 14.6686 162.907 14.625C162.926 14.5813 162.932 14.5333 162.924 14.4866L162.497 11.8719L164.302 10.0225C164.334 9.98928 164.357 9.94776 164.367 9.90249C164.378 9.85722 164.375 9.80995 164.361 9.76589C164.346 9.72183 164.319 9.68268 164.284 9.65276C164.248 9.62284 164.205 9.60331 164.159 9.59631Z" fill="#FFC107"/>
<path d="M174.931 9.59631L172.448 9.21692L171.334 6.84569C171.251 6.66862 170.961 6.66862 170.877 6.84569L169.765 9.21692L167.281 9.59631C167.235 9.60335 167.192 9.6229 167.157 9.65279C167.121 9.68269 167.095 9.72179 167.08 9.76579C167.065 9.80979 167.063 9.85699 167.073 9.90222C167.084 9.94744 167.106 9.98894 167.139 10.0221L168.943 11.8716L168.516 14.4862C168.509 14.533 168.514 14.5809 168.533 14.6246C168.551 14.6683 168.581 14.7059 168.62 14.7332C168.659 14.7605 168.704 14.7763 168.752 14.7789C168.799 14.7815 168.846 14.7707 168.888 14.7478L171.106 13.5218L173.324 14.7481C173.366 14.771 173.413 14.7818 173.46 14.7792C173.508 14.7767 173.553 14.7608 173.592 14.7335C173.631 14.7063 173.661 14.6686 173.679 14.625C173.698 14.5813 173.703 14.5333 173.696 14.4866L173.269 11.8719L175.074 10.0225C175.106 9.98928 175.129 9.94776 175.139 9.90249C175.15 9.85722 175.147 9.80995 175.133 9.76589C175.118 9.72183 175.091 9.68268 175.056 9.65276C175.02 9.62284 174.977 9.60331 174.931 9.59631Z" fill="#FFC107"/>
<circle cx="214.5" cy="114.5" r="5.5" fill="#B9FAF8"/>
<circle cx="215.5" cy="113.5" r="5.3" stroke="#F5F8FF" stroke-width="0.4"/>
<circle cx="228" cy="104" r="3" fill="#B9FAF8"/>
<circle cx="229" cy="103" r="2.8" stroke="#F5F8FF" stroke-width="0.4"/>
</svg>
