<svg width="186" height="225" viewBox="0 0 186 225" fill="none" xmlns="http://www.w3.org/2000/svg">
<circle cx="92.0854" cy="138.253" r="86.747" fill="#242A38"/>
<path d="M57.0735 67.965C57.0735 63.0376 61.0679 59.0432 65.9953 59.0432H76.7471V61.531C76.7471 62.6681 77.6689 63.5899 78.806 63.5899H107.173C108.31 63.5899 109.231 62.6681 109.231 61.531V59.0432H119.983C124.911 59.0432 128.905 63.0376 128.905 67.965V195.157C128.905 200.085 124.911 204.079 119.983 204.079H65.9953C61.0679 204.079 57.0735 200.085 57.0735 195.157V67.965Z" fill="#0E0F18" stroke="#DCDFE6" stroke-width="0.457526"/>
<rect x="63.4785" y="179.83" width="59.0209" height="10.5231" rx="2.5164" stroke="#F5F8FF" stroke-width="0.457526"/>
<rect x="63.3992" y="89.6858" width="59.181" height="61.8919" rx="2.5164" stroke="#F5F8FF" stroke-width="0.457526"/>
<rect x="63.4805" y="72.7698" width="59.0209" height="8.693" rx="4.3465" stroke="#F5F8FF" stroke-width="0.457526"/>
<path d="M115.766 79.3873C117.087 79.3873 118.159 78.316 118.159 76.9944C118.159 75.6729 117.087 74.6016 115.766 74.6016C114.444 74.6016 113.373 75.6729 113.373 76.9944C113.373 78.316 114.444 79.3873 115.766 79.3873Z" stroke="#F5F8FF" stroke-width="0.377824" stroke-linecap="round" stroke-linejoin="round"/>
<path d="M118.411 79.6385L117.907 79.1348" stroke="#F5F8FF" stroke-width="0.377824" stroke-linecap="round" stroke-linejoin="round"/>
<path d="M23.8486 156.875C23.6668 156.268 23.6874 155.702 23.9107 155.199C24.1543 154.643 24.5802 154.3 24.8945 154.11C24.889 153.414 25.1676 152.431 26.2618 152.011C27.0635 151.704 28.1608 151.856 29.5235 152.468C30.4828 152.895 31.2284 153.398 31.2589 153.418L31.2626 153.42C31.4352 153.526 31.616 153.644 31.7991 153.767C31.9071 153.536 32.0979 152.929 32.1811 151.428C32.2816 149.642 32.7861 148.443 33.6904 147.863C34.6404 147.255 35.6507 147.574 35.9404 147.687C36.2189 147.796 36.43 148.012 36.529 148.295C36.7533 148.936 36.3584 149.801 36.1462 150.189C36.1208 151.696 36.2307 155.458 37.0421 156.809C37.0585 156.833 37.0698 156.859 37.0811 156.884C37.2815 157.379 37.3588 157.859 37.3808 158.262C37.6465 158.229 37.9215 158.259 38.1889 158.364L40.4543 159.253C41.3084 159.588 41.7268 160.553 41.3933 161.404L39.0266 167.438C38.6916 168.292 37.7263 168.711 36.8758 168.377L34.6105 167.489C34.2799 167.359 34.0125 167.134 33.8299 166.857L32.9164 166.619C32.7754 166.585 30.2806 165.954 27.8597 164.949C27.4046 164.809 26.9814 164.664 26.5952 164.513C25.9304 164.252 25.3715 163.973 24.9295 163.679C23.8878 162.992 23.3009 162.205 23.1855 161.341C23.0973 160.681 23.3085 160.143 23.4908 159.82C23.0139 158.862 23.1737 158.072 23.4036 157.562C23.5365 157.267 23.7038 157.037 23.8486 156.875ZM37.2691 167.375C37.5699 167.493 37.9074 167.342 38.0239 167.045L40.3921 161.007C40.51 160.706 40.3596 160.368 40.0625 160.252L37.7971 159.363C37.4963 159.245 37.1588 159.396 37.0423 159.693L34.6756 165.728C34.5576 166.028 34.7081 166.366 35.0052 166.483L37.2705 167.371L37.2691 167.375ZM24.9698 156.814C25.0617 157.038 24.9938 157.299 24.7992 157.445C24.7978 157.449 24.5435 157.649 24.3852 157.998C24.1684 158.475 24.2334 158.997 24.5794 159.557C24.7015 159.759 24.6818 160.017 24.5259 160.196C24.5245 160.2 24.1725 160.627 24.2504 161.193C24.3245 161.737 24.7526 162.273 25.522 162.781C26.1373 163.189 27.0407 163.573 28.1972 163.924L28.2492 163.944C30.6167 164.933 33.153 165.568 33.1804 165.574L33.1841 165.576L33.5767 165.678C33.5952 165.565 33.6277 165.45 33.6714 165.338L36.0396 159.3C36.1022 159.14 36.1894 158.994 36.2908 158.867C36.3215 158.592 36.3528 157.966 36.0996 157.322C34.9506 155.346 35.0695 150.247 35.0747 150.026C35.0755 149.936 35.1016 149.848 35.15 149.768C35.3762 149.377 35.5535 148.86 35.5241 148.672C35.3258 148.599 34.7729 148.446 34.2802 148.763C33.696 149.138 33.3439 150.08 33.2659 151.48C33.1485 153.615 32.8101 154.631 32.1444 154.875C31.8133 154.998 31.4822 154.881 31.278 154.703C31.0718 154.562 30.8739 154.433 30.6828 154.319C30.6694 154.31 30.6523 154.299 30.6389 154.289C29.5963 153.593 27.6135 152.64 26.6508 153.008C25.8336 153.322 25.9752 154.217 25.9929 154.314C26.0488 154.576 25.9016 154.831 25.6504 154.925C25.6452 154.928 25.1111 155.142 24.8988 155.629C24.7543 155.954 24.7777 156.353 24.9698 156.814Z" fill="#647EDD"/>
<path d="M171.691 171.655C171.873 171.048 171.852 170.482 171.629 169.978C171.385 169.422 170.959 169.079 170.645 168.89C170.651 168.193 170.372 167.21 169.278 166.791C168.476 166.484 167.379 166.636 166.016 167.247C165.057 167.675 164.311 168.177 164.281 168.198L164.277 168.199C164.104 168.305 163.924 168.423 163.74 168.547C163.632 168.315 163.442 167.708 163.358 166.207C163.258 164.421 162.753 163.222 161.849 162.643C160.899 162.034 159.889 162.353 159.599 162.467C159.321 162.576 159.11 162.791 159.011 163.074C158.786 163.715 159.181 164.58 159.393 164.968C159.419 166.475 159.309 170.238 158.497 171.588C158.481 171.612 158.47 171.638 158.458 171.664C158.258 172.158 158.181 172.638 158.159 173.041C157.893 173.008 157.618 173.039 157.351 173.144L155.085 174.032C154.231 174.367 153.813 175.332 154.146 176.183L156.513 182.218C156.848 183.072 157.813 183.49 158.664 183.157L160.929 182.268C161.26 182.139 161.527 181.914 161.71 181.636L162.623 181.398C162.764 181.364 165.259 180.733 167.68 179.728C168.135 179.588 168.558 179.443 168.944 179.292C169.609 179.031 170.168 178.752 170.61 178.459C171.652 177.772 172.239 176.984 172.354 176.121C172.442 175.461 172.231 174.922 172.049 174.599C172.526 173.641 172.366 172.851 172.136 172.341C172.003 172.046 171.836 171.816 171.691 171.655ZM158.27 182.154C157.97 182.272 157.632 182.121 157.516 181.824L155.147 175.786C155.03 175.485 155.18 175.148 155.477 175.031L157.742 174.143C158.043 174.025 158.381 174.175 158.497 174.472L160.864 180.507C160.982 180.808 160.831 181.145 160.534 181.262L158.269 182.15L158.27 182.154ZM170.57 171.593C170.478 171.818 170.546 172.078 170.74 172.224C170.742 172.228 170.996 172.428 171.154 172.778C171.371 173.254 171.306 173.777 170.96 174.336C170.838 174.539 170.858 174.796 171.014 174.975C171.015 174.979 171.367 175.407 171.289 175.973C171.215 176.516 170.787 177.052 170.018 177.56C169.402 177.968 168.499 178.353 167.342 178.703L167.29 178.724C164.923 179.712 162.387 180.347 162.359 180.353L162.355 180.355L161.963 180.457C161.944 180.345 161.912 180.229 161.868 180.117L159.5 174.079C159.437 173.919 159.35 173.773 159.249 173.646C159.218 173.371 159.187 172.745 159.44 172.101C160.589 170.125 160.47 165.026 160.465 164.805C160.464 164.715 160.438 164.627 160.39 164.548C160.163 164.156 159.986 163.639 160.015 163.452C160.214 163.378 160.767 163.226 161.259 163.542C161.844 163.917 162.196 164.859 162.274 166.26C162.391 168.395 162.729 169.41 163.395 169.655C163.726 169.778 164.057 169.661 164.262 169.482C164.468 169.341 164.666 169.212 164.857 169.099C164.87 169.089 164.887 169.078 164.901 169.069C165.943 168.373 167.926 167.419 168.889 167.787C169.706 168.101 169.564 168.996 169.547 169.093C169.491 169.355 169.638 169.61 169.889 169.705C169.894 169.707 170.428 169.922 170.641 170.408C170.785 170.733 170.762 171.132 170.57 171.593Z" fill="#647EDD"/>
<path d="M149.245 196.884C149.338 196.573 149.328 196.284 149.213 196.026C149.089 195.741 148.871 195.565 148.71 195.468C148.712 195.112 148.57 194.608 148.009 194.393C147.599 194.236 147.037 194.314 146.339 194.627C145.848 194.846 145.466 195.103 145.45 195.114L145.448 195.115C145.36 195.169 145.267 195.23 145.174 195.293C145.118 195.174 145.021 194.863 144.978 194.094C144.927 193.18 144.668 192.566 144.205 192.269C143.719 191.957 143.201 192.121 143.053 192.179C142.91 192.235 142.802 192.345 142.751 192.49C142.636 192.818 142.839 193.261 142.947 193.46C142.96 194.232 142.904 196.159 142.489 196.85C142.48 196.862 142.474 196.876 142.469 196.889C142.366 197.142 142.326 197.388 142.315 197.594C142.179 197.577 142.038 197.593 141.901 197.647L140.741 198.102C140.304 198.273 140.089 198.768 140.26 199.203L141.472 202.294C141.644 202.731 142.138 202.946 142.574 202.775L143.734 202.32C143.903 202.253 144.04 202.138 144.134 201.996L144.601 201.874C144.674 201.857 145.951 201.534 147.191 201.019C147.424 200.947 147.641 200.873 147.839 200.796C148.179 200.662 148.465 200.519 148.692 200.369C149.225 200.017 149.526 199.614 149.585 199.171C149.63 198.833 149.522 198.558 149.429 198.392C149.673 197.902 149.591 197.497 149.473 197.236C149.405 197.085 149.319 196.967 149.245 196.884ZM142.372 202.261C142.218 202.322 142.045 202.245 141.986 202.092L140.773 199C140.713 198.846 140.79 198.673 140.942 198.613L142.102 198.158C142.256 198.098 142.429 198.175 142.488 198.327L143.701 201.418C143.761 201.572 143.684 201.745 143.532 201.804L142.372 202.259L142.372 202.261ZM148.671 196.853C148.624 196.968 148.659 197.101 148.758 197.176C148.759 197.178 148.889 197.281 148.97 197.459C149.082 197.703 149.048 197.971 148.871 198.258C148.808 198.361 148.819 198.493 148.898 198.585C148.899 198.587 149.079 198.806 149.039 199.096C149.002 199.374 148.782 199.649 148.388 199.908C148.073 200.118 147.611 200.314 147.018 200.494L146.992 200.505C145.779 201.011 144.48 201.336 144.466 201.339L144.464 201.34L144.263 201.392C144.254 201.335 144.237 201.275 144.215 201.218L143.002 198.126C142.97 198.044 142.925 197.969 142.873 197.904C142.858 197.763 142.842 197.443 142.971 197.113C143.56 196.101 143.499 193.49 143.496 193.376C143.496 193.331 143.482 193.285 143.458 193.245C143.342 193.044 143.251 192.779 143.266 192.683C143.368 192.646 143.651 192.568 143.903 192.73C144.202 192.922 144.383 193.404 144.422 194.121C144.483 195.215 144.656 195.735 144.997 195.86C145.166 195.923 145.336 195.863 145.441 195.772C145.546 195.7 145.647 195.633 145.745 195.575C145.752 195.57 145.761 195.565 145.768 195.56C146.302 195.204 147.317 194.715 147.81 194.904C148.229 195.064 148.156 195.523 148.147 195.573C148.119 195.707 148.194 195.837 148.323 195.886C148.325 195.887 148.599 195.997 148.707 196.246C148.781 196.412 148.769 196.617 148.671 196.853Z" fill="#647EDD"/>
<circle cx="22.3642" cy="112.809" r="21.0918" stroke="#F5F8FF" stroke-width="0.903614"/>
<circle cx="23.2682" cy="110.171" r="21.5436" fill="#FFE072"/>
<path d="M17.5981 114.706C19.6769 111.682 25.0817 107.449 30.0708 114.706" stroke="#090A13" stroke-width="1.13387"/>
<ellipse cx="13.4791" cy="102.427" rx="1.80428" ry="3.60855" fill="#090A13"/>
<ellipse cx="33.8895" cy="102.427" rx="1.80428" ry="3.60855" fill="#090A13"/>
<circle cx="162.713" cy="108.29" r="21.2725" stroke="#F5F8FF" stroke-width="0.542169"/>
<path d="M154.843 101.894C154.843 102.868 154.645 103.742 154.334 104.365C154.017 104.998 153.612 105.322 153.22 105.322C152.827 105.322 152.422 104.998 152.105 104.365C151.794 103.742 151.596 102.868 151.596 101.894C151.596 100.919 151.794 100.046 152.105 99.4229C152.422 98.7891 152.827 98.4659 153.22 98.4659C153.612 98.4659 154.017 98.7891 154.334 99.4229C154.645 100.046 154.843 100.919 154.843 101.894Z" stroke="#F5F8FF" stroke-width="0.361446"/>
<path d="M175.253 101.894C175.253 102.868 175.055 103.742 174.744 104.365C174.427 104.998 174.023 105.322 173.63 105.322C173.237 105.322 172.832 104.998 172.516 104.365C172.204 103.742 172.006 102.868 172.006 101.894C172.006 100.919 172.204 100.046 172.516 99.4229C172.832 98.7891 173.237 98.4659 173.63 98.4659C174.023 98.4659 174.427 98.7891 174.744 99.4229C175.055 100.046 175.253 100.919 175.253 101.894Z" stroke="#F5F8FF" stroke-width="0.361446"/>
<path d="M157.043 112.826C159.122 112.826 164.527 112.826 169.516 112.826" stroke="#F5F8FF" stroke-width="1.13387"/>
<circle cx="158.984" cy="110.171" r="21.5436" fill="#FFE072"/>
<ellipse cx="149.49" cy="103.775" rx="1.80428" ry="3.60855" fill="#090A13"/>
<ellipse cx="169.9" cy="103.775" rx="1.80428" ry="3.60855" fill="#090A13"/>
<path d="M153.314 114.707C155.392 114.707 160.797 114.707 165.786 114.707" stroke="#090A13" stroke-width="1.13387"/>
<circle cx="90.1361" cy="24.2545" r="21.0918" stroke="#F5F8FF" stroke-width="0.903614"/>
<path d="M81.972 17.6183C81.972 18.5928 81.7741 19.4661 81.4626 20.0891C81.1457 20.7229 80.7414 21.0461 80.3485 21.0461C79.9556 21.0461 79.5512 20.7229 79.2343 20.0891C78.9228 19.4661 78.7249 18.5928 78.7249 17.6183C78.7249 16.6438 78.9228 15.7705 79.2343 15.1475C79.5512 14.5137 79.9556 14.1905 80.3485 14.1905C80.7414 14.1905 81.1457 14.5137 81.4626 15.1475C81.7741 15.7705 81.972 16.6438 81.972 17.6183Z" stroke="#F5F8FF" stroke-width="0.361446"/>
<path d="M102.382 17.6183C102.382 18.5928 102.184 19.4661 101.873 20.0891C101.556 20.7229 101.152 21.0461 100.759 21.0461C100.366 21.0461 99.9614 20.7229 99.6444 20.0891C99.333 19.4661 99.1351 18.5928 99.1351 17.6183C99.1351 16.6438 99.333 15.7705 99.6444 15.1475C99.9614 14.5137 100.366 14.1905 100.759 14.1905C101.152 14.1905 101.556 14.5137 101.873 15.1475C102.184 15.7705 102.382 16.6438 102.382 17.6183Z" stroke="#F5F8FF" stroke-width="0.361446"/>
<path d="M98.0718 27.0894C94.6702 33.8926 87.7535 34.3462 82.7645 27.0894L98.0718 27.0894Z" stroke="#F5F8FF" stroke-width="1.13387"/>
<circle cx="89.2448" cy="21.5436" r="21.5436" fill="#FFE072"/>
<ellipse cx="79.4571" cy="14.9054" rx="1.80428" ry="3.60855" fill="#090A13"/>
<ellipse cx="99.8675" cy="14.9054" rx="1.80428" ry="3.60855" fill="#090A13"/>
<path d="M97.1804 24.3785C93.7788 31.1817 86.8622 31.6353 81.8731 24.3785L97.1804 24.3785Z" stroke="#090A13" stroke-width="1.13387"/>
<path d="M54.4668 44.4674C54.3879 44.5303 54.2928 44.5728 54.1896 44.5884C54.0775 44.6054 51.4099 45.0014 48.2881 44.8819C46.4378 44.8112 44.8149 44.5716 43.4644 44.17C41.7168 43.6504 40.4097 42.8523 39.5792 41.7979C38.613 40.571 38.1342 39.0741 38.2313 37.5829C38.33 36.0665 39.0111 34.7314 40.1491 33.8234C41.6076 32.6597 43.5929 32.4128 45.3929 33.0947C45.1278 31.1882 45.8094 29.3072 47.2679 28.1436C48.343 27.2857 49.7171 26.9038 51.137 27.068C52.6952 27.2481 54.1668 28.0852 55.1744 29.3646C56.0034 30.4171 56.4823 31.8733 56.5978 33.6924C56.6871 35.0995 56.5612 36.7337 56.2234 38.5498C55.6533 41.6146 54.6879 44.1173 54.647 44.2223C54.6096 44.3185 54.5474 44.403 54.4668 44.4674Z" fill="#FD3E42"/>
<path d="M45.6703 18.5843C45.7244 18.5957 45.7815 18.5932 45.8359 18.5754C45.895 18.5562 47.3001 18.0943 48.801 17.2681C49.6905 16.7784 50.4272 16.2619 50.9904 15.733C51.7193 15.0485 52.1638 14.3358 52.3115 13.6148C52.4835 12.7758 52.3501 11.9243 51.9358 11.2171C51.5145 10.4981 50.8524 10.0111 50.0712 9.84589C49.0701 9.63412 48.0362 10.0013 47.3216 10.7782C46.9827 9.77844 46.1861 9.02403 45.185 8.81227C44.447 8.65616 43.6795 8.80681 43.0239 9.23647C42.3043 9.70797 41.7888 10.4802 41.6095 11.3551C41.462 12.0749 41.5853 12.9064 41.9761 13.8266C42.2783 14.5382 42.7419 15.3084 43.354 16.1155C44.3871 17.4777 45.4758 18.467 45.5217 18.5085C45.5637 18.5464 45.6149 18.5726 45.6703 18.5843Z" fill="#FD3E42"/>
<path d="M53.247 45.2247L53.2471 45.2246C53.3023 45.2163 53.3532 45.1936 53.3956 45.1598C53.4388 45.1253 53.4722 45.0799 53.4923 45.0284C53.5305 44.9299 54.4892 42.4452 55.0548 39.4045C55.3897 37.6041 55.5127 35.993 55.4251 34.6139C55.3119 32.8303 54.844 31.4329 54.0594 30.4366C53.0945 29.2115 51.6873 28.4131 50.2038 28.2415L50.2349 27.9723L50.2038 28.2415C48.8524 28.0853 47.5511 28.4489 46.5348 29.2598C45.158 30.3583 44.5061 32.1409 44.7593 33.9616L44.8223 34.4144L44.3948 34.2525C42.6757 33.6013 40.7929 33.8411 39.416 34.9396C38.3406 35.7977 37.6937 37.0608 37.5997 38.5048M53.247 45.2247L38.8901 42.5345C37.9632 41.3575 37.5072 39.926 37.5997 38.5048M53.247 45.2247C53.1419 45.2406 50.4934 45.6339 47.3963 45.5154L47.386 45.7862M53.247 45.2247L47.386 45.7862M37.5997 38.5048L37.3292 38.4871M37.5997 38.5048L37.3292 38.4871M37.3292 38.4871C37.2321 39.9784 37.7109 41.4753 38.6771 42.7022L44.2223 34.0363C44.216 33.9905 44.2101 33.9447 44.2048 33.8989C42.483 33.3456 40.6286 33.6253 39.247 34.7277C38.109 35.6357 37.4279 36.9708 37.3292 38.4871ZM47.386 45.7862L47.3963 45.5154C45.5621 45.4452 43.9627 45.208 42.6395 44.8145M47.386 45.7862L42.6395 44.8145M42.6395 44.8145L42.5623 45.0743M42.6395 44.8145L42.5623 45.0743M42.5623 45.0743L42.6395 44.8145C40.9268 44.3052 39.6755 43.5316 38.8901 42.5345L42.5623 45.0743Z" stroke="#FFFEFE" stroke-width="0.542169"/>
<path d="M44.8494 19.222L44.8493 19.222C44.841 19.2247 44.8323 19.2251 44.8238 19.2234L44.8494 19.222ZM44.8494 19.222C44.9018 19.2049 46.2884 18.7492 47.7676 17.9349L47.7676 17.9349M44.8494 19.222L47.7676 17.9349M47.7676 17.9349C48.6432 17.453 49.3598 16.9491 49.9023 16.4396L49.9023 16.4396M47.7676 17.9349L49.9023 16.4396M49.9023 16.4396C50.6046 15.7801 51.0102 15.1143 51.1434 14.4647L49.9023 16.4396ZM41.0735 14.7308L41.323 14.6249C40.9462 13.7375 40.8394 12.9635 40.9725 12.3138C41.1379 11.5066 41.6132 10.7978 42.2699 10.3675L42.1227 10.143L42.2699 10.3675C42.8678 9.97568 43.562 9.84125 44.2263 9.98178C45.1251 10.1719 45.8512 10.8518 46.1622 11.7695L46.309 12.2024L46.6185 11.866C47.2745 11.1528 48.2137 10.8253 49.1125 11.0154C49.8154 11.1641 50.4147 11.602 50.7993 12.2585C51.1781 12.9051 51.3026 13.6879 51.1434 14.4647L41.0735 14.7308ZM41.0735 14.7308L41.323 14.6249C41.6142 15.3108 42.0649 16.0615 42.6674 16.856M41.0735 14.7308L42.6674 16.856M42.6674 16.856C43.6854 18.1982 44.7596 19.1744 44.8008 19.2116L42.6674 16.856Z" stroke="#FFFEFE" stroke-width="0.542169"/>
<path d="M130.038 37.8812V54.7121L135.023 48.8204C136.558 47.0063 138.814 45.96 141.19 45.96H175.818C181.023 45.96 185.243 41.7402 185.243 36.5347C185.243 31.3292 181.023 27.1094 175.818 27.1094H140.81C134.861 27.1094 130.038 31.9321 130.038 37.8812Z" stroke="#FFF9F9" stroke-width="0.903614"/>
<path d="M128.146 34.3831V51.2141L133.131 45.3224C134.666 43.5082 136.922 42.462 139.298 42.462H173.926C179.131 42.462 183.351 38.2421 183.351 33.0367C183.351 27.8312 179.131 23.6113 173.926 23.6113H138.917C132.968 23.6113 128.146 28.434 128.146 34.3831Z" fill="#B9FAF8"/>
<path d="M144.761 31.2076L142.277 30.8283L141.164 28.457C141.081 28.28 140.791 28.28 140.707 28.457L139.595 30.8283L137.111 31.2076C137.065 31.2147 137.022 31.2342 136.987 31.2641C136.951 31.294 136.924 31.3331 136.91 31.3771C136.895 31.4211 136.893 31.4683 136.903 31.5135C136.913 31.5588 136.936 31.6003 136.968 31.6335L138.773 33.4829L138.346 36.0975C138.339 36.1443 138.344 36.1923 138.363 36.2359C138.381 36.2796 138.411 36.3173 138.45 36.3445C138.489 36.3718 138.534 36.3877 138.582 36.3902C138.629 36.3928 138.676 36.382 138.718 36.3591L140.936 35.1331L143.154 36.3594C143.196 36.3824 143.243 36.3931 143.29 36.3906C143.338 36.388 143.383 36.3722 143.422 36.3449C143.461 36.3176 143.491 36.28 143.509 36.2363C143.528 36.1926 143.533 36.1446 143.526 36.0979L143.099 33.4833L144.904 31.6338C144.936 31.6006 144.959 31.5591 144.969 31.5138C144.98 31.4685 144.977 31.4213 144.963 31.3772C144.948 31.3332 144.921 31.294 144.886 31.2641C144.85 31.2342 144.807 31.2146 144.761 31.2076Z" fill="#FFC107"/>
<path d="M155.533 31.2076L153.049 30.8283L151.936 28.457C151.853 28.28 151.562 28.28 151.479 28.457L150.366 30.8283L147.883 31.2076C147.837 31.2147 147.794 31.2342 147.758 31.2641C147.723 31.294 147.696 31.3331 147.681 31.3771C147.667 31.4211 147.664 31.4683 147.675 31.5135C147.685 31.5588 147.708 31.6003 147.74 31.6335L149.545 33.4829L149.118 36.0975C149.11 36.1443 149.116 36.1923 149.134 36.2359C149.153 36.2796 149.183 36.3173 149.222 36.3445C149.261 36.3718 149.306 36.3877 149.353 36.3902C149.401 36.3928 149.448 36.382 149.489 36.3591L151.708 35.1331L153.926 36.3594C153.968 36.3824 154.015 36.3931 154.062 36.3906C154.109 36.388 154.155 36.3722 154.194 36.3449C154.232 36.3176 154.263 36.28 154.281 36.2363C154.299 36.1926 154.305 36.1446 154.297 36.0979L153.871 33.4833L155.675 31.6338C155.708 31.6006 155.73 31.5591 155.741 31.5138C155.751 31.4685 155.749 31.4213 155.734 31.3772C155.72 31.3332 155.693 31.294 155.657 31.2641C155.622 31.2342 155.579 31.2146 155.533 31.2076Z" fill="#FFC107"/>
<path d="M166.305 31.2076L163.821 30.8283L162.708 28.457C162.625 28.28 162.334 28.28 162.251 28.457L161.138 30.8283L158.655 31.2076C158.609 31.2147 158.566 31.2342 158.53 31.2641C158.495 31.294 158.468 31.3331 158.453 31.3771C158.439 31.4211 158.436 31.4683 158.447 31.5135C158.457 31.5588 158.48 31.6003 158.512 31.6335L160.317 33.4829L159.89 36.0975C159.882 36.1443 159.888 36.1923 159.906 36.2359C159.925 36.2796 159.955 36.3173 159.994 36.3445C160.033 36.3718 160.078 36.3877 160.125 36.3902C160.173 36.3928 160.22 36.382 160.261 36.3591L162.48 35.1331L164.698 36.3594C164.74 36.3824 164.787 36.3931 164.834 36.3906C164.881 36.388 164.927 36.3722 164.966 36.3449C165.004 36.3176 165.035 36.28 165.053 36.2363C165.071 36.1926 165.077 36.1446 165.069 36.0979L164.643 33.4833L166.447 31.6338C166.48 31.6006 166.502 31.5591 166.513 31.5138C166.523 31.4685 166.521 31.4213 166.506 31.3772C166.492 31.3332 166.465 31.294 166.429 31.2641C166.394 31.2342 166.351 31.2146 166.305 31.2076Z" fill="#FFC107"/>
<path d="M177.077 31.2076L174.593 30.8283L173.48 28.457C173.397 28.28 173.106 28.28 173.023 28.457L171.91 30.8283L169.426 31.2076C169.38 31.2147 169.337 31.2342 169.302 31.2641C169.266 31.294 169.24 31.3331 169.225 31.3771C169.21 31.4211 169.208 31.4683 169.219 31.5135C169.229 31.5588 169.252 31.6003 169.284 31.6335L171.088 33.4829L170.662 36.0975C170.654 36.1443 170.66 36.1923 170.678 36.2359C170.697 36.2796 170.727 36.3173 170.766 36.3445C170.804 36.3718 170.85 36.3877 170.897 36.3902C170.944 36.3928 170.992 36.382 171.033 36.3591L173.251 35.1331L175.47 36.3594C175.511 36.3824 175.558 36.3931 175.606 36.3906C175.653 36.388 175.699 36.3722 175.737 36.3449C175.776 36.3176 175.806 36.28 175.825 36.2363C175.843 36.1926 175.849 36.1446 175.841 36.0979L175.415 33.4833L177.219 31.6338C177.251 31.6006 177.274 31.5591 177.285 31.5138C177.295 31.4685 177.293 31.4213 177.278 31.3772C177.263 31.3332 177.237 31.294 177.201 31.2641C177.166 31.2342 177.123 31.2146 177.077 31.2076Z" fill="#FFC107"/>
<path d="M63.1699 158.133H121.453M63.1699 162.199H121.453M63.1699 166.717H121.453M63.1699 170.783H100.218" stroke="#F5F8FF" stroke-width="0.451807"/>
</svg>
