<svg width="310" height="304" viewBox="0 0 310 304" fill="none" xmlns="http://www.w3.org/2000/svg">
<circle cx="123" cy="120" r="96" fill="#242A38"/>
<path d="M73.3165 19.5254C73.3165 12.7093 78.8421 7.18364 85.6582 7.18364H100.532V10.6251C100.532 12.1981 101.807 13.4732 103.38 13.4732H142.62C144.193 13.4732 145.468 12.1981 145.468 10.6251V7.18364H160.342C167.158 7.18364 172.684 12.7092 172.684 19.5254V195.475C172.684 202.291 167.158 207.817 160.342 207.817H85.6582C78.8421 207.817 73.3165 202.291 73.3165 195.475V19.5254Z" fill="#0E0F18" stroke="#DCDFE6" stroke-width="0.632911"/>
<rect x="82.1773" y="174.272" width="81.6456" height="14.557" rx="3.48101" stroke="#F5F8FF" stroke-width="0.632911"/>
<path d="M122.733 73.9545C122.603 73.936 122.437 73.936 122.289 73.9545C119.031 73.8435 116.439 71.178 116.439 67.9016C116.439 64.5511 119.142 61.8301 122.511 61.8301C125.861 61.8301 128.582 64.5511 128.582 67.9016C128.564 71.178 125.991 73.8435 122.733 73.9545Z" stroke="#647EDD" stroke-width="1.3883" stroke-linecap="round" stroke-linejoin="round"/>
<path d="M134.987 86.1716C131.692 89.1888 127.323 91.0214 122.511 91.0214C117.698 91.0214 113.329 89.1888 110.034 86.1716C110.22 84.4316 111.33 82.7286 113.311 81.3958C118.383 78.0269 126.675 78.0269 131.71 81.3958C133.691 82.7286 134.802 84.4316 134.987 86.1716Z" stroke="#647EDD" stroke-width="1.3883" stroke-linecap="round" stroke-linejoin="round"/>
<path d="M122.511 91.0213C132.734 91.0213 141.021 82.7338 141.021 72.5106C141.021 62.2875 132.734 54 122.511 54C112.287 54 104 62.2875 104 72.5106C104 82.7338 112.287 91.0213 122.511 91.0213Z" stroke="#647EDD" stroke-width="1.3883" stroke-linecap="round" stroke-linejoin="round"/>
<rect x="28.3" y="80.3" width="52.1553" height="47.5277" rx="3.40213" stroke="#F5F8FF" stroke-width="0.6"/>
<rect x="31.3" y="77.3" width="52.1553" height="47.5277" rx="3.40213" fill="#FFE072" stroke="#F5F8FF" stroke-width="0.6"/>
<rect x="37.4788" y="89.0312" width="13.883" height="13.883" rx="2" fill="#F5F8FF"/>
<rect x="37.4788" y="105.691" width="13.883" height="13.883" rx="2" fill="#F5F8FF"/>
<rect x="54.1384" y="89.0312" width="13.883" height="13.883" rx="2" fill="#F5F8FF"/>
<rect x="54.1384" y="105.691" width="13.883" height="13.883" rx="2" fill="#F5F8FF"/>
<path d="M31.3 80.7021C31.3 78.8232 32.8232 77.3 34.7021 77.3H80.0532C81.9321 77.3 83.4553 78.8232 83.4553 80.7021V83.1787H31.3V80.7021Z" stroke="#F5F8FF" stroke-width="0.6"/>
<circle cx="65.7074" cy="80.2399" r="1.3883" fill="#F5F8FF"/>
<circle cx="71.2606" cy="80.2399" r="1.3883" fill="#F5F8FF"/>
<circle cx="76.8138" cy="80.2399" r="1.3883" fill="#F5F8FF"/>
<rect x="168.3" y="94.3" width="57.7085" height="47.5277" rx="3.40213" stroke="#F5F8FF" stroke-width="0.6"/>
<rect x="165.3" y="91.3" width="57.7085" height="47.5277" rx="3.40213" fill="#FD3E42" stroke="#F5F8FF" stroke-width="0.6"/>
<path d="M165.3 94.7021C165.3 92.8232 166.823 91.3 168.702 91.3H219.606C221.485 91.3 223.009 92.8232 223.009 94.7021V97.1787H165.3V94.7021Z" stroke="#F5F8FF" stroke-width="0.6"/>
<circle cx="205.261" cy="94.2399" r="1.3883" fill="#F5F8FF"/>
<circle cx="210.814" cy="94.2399" r="1.3883" fill="#F5F8FF"/>
<circle cx="216.367" cy="94.2399" r="1.3883" fill="#F5F8FF"/>
<rect x="191.215" y="100.556" width="28.0915" height="33.6447" rx="2.7" stroke="#F5F8FF" stroke-width="0.6"/>
<rect x="191.215" y="100.556" width="28.0915" height="17.9106" rx="2.7" stroke="#F5F8FF" stroke-width="0.6"/>
<path d="M192.766 123.857H217.292M192.766 127.097H217.292M192.766 130.336H213.128" stroke="#F5F8FF" stroke-width="0.6"/>
<path d="M156 60.6755V41.2394C156 38.6479 158.468 38 159.702 38H196.261C199.593 38 200.426 40.1596 200.426 41.2394V60.6755C200.426 63.267 198.574 63.9149 197.649 63.9149H178.213L166.181 73.1702L169.42 63.9149H159.702C156.74 63.9149 156 61.7553 156 60.6755Z" stroke="#F5F8FF" stroke-width="0.555319"/>
<path d="M159 58.6755V39.2394C159 36.6479 161.468 36 162.702 36H199.261C202.593 36 203.426 38.1596 203.426 39.2394V58.6755C203.426 61.267 201.574 61.9149 200.649 61.9149H181.213L169.181 71.1702L172.42 61.9149H162.702C159.74 61.9149 159 59.7553 159 58.6755Z" fill="#647EDD" stroke="#F5F8FF" stroke-width="0.555319"/>
<path d="M173.809 42.0156H200.186M173.809 46.6433H200.186" stroke="#F5F8FF" stroke-width="0.925532"/>
<path d="M164 52H200M164 57H200" stroke="#F5F8FF" stroke-width="0.6"/>
<circle cx="166.404" cy="43.8679" r="4.62766" fill="#D9D9D9"/>
<rect x="18.25" y="160.25" width="77.2447" height="10.6064" rx="5.30319" stroke="#F5F8FF" stroke-width="0.5"/>
<rect x="15" y="158" width="77.7447" height="11.1064" rx="5.55319" fill="#B892FF"/>
<path d="M43.5219 161V165.165H43.0203V161H43.5219ZM43.4026 163.587L43.1938 163.579C43.1956 163.378 43.2254 163.193 43.2833 163.023C43.3411 162.851 43.4225 162.702 43.5273 162.575C43.6322 162.449 43.7569 162.351 43.9015 162.283C44.0479 162.212 44.2097 162.177 44.3869 162.177C44.5315 162.177 44.6616 162.197 44.7773 162.236C44.893 162.274 44.9915 162.336 45.0729 162.421C45.156 162.506 45.2193 162.616 45.2627 162.752C45.3061 162.885 45.3278 163.049 45.3278 163.242V165.165H44.8234V163.237C44.8234 163.083 44.8008 162.96 44.7556 162.868C44.7104 162.774 44.6445 162.706 44.5577 162.665C44.4709 162.621 44.3643 162.6 44.2377 162.6C44.113 162.6 43.9991 162.626 43.8961 162.678C43.7949 162.731 43.7072 162.803 43.6331 162.895C43.5608 162.988 43.5038 163.093 43.4622 163.213C43.4225 163.33 43.4026 163.455 43.4026 163.587Z" fill="#282828"/>
<path d="M41.2876 164.808C41.4069 164.808 41.5172 164.784 41.6184 164.735C41.7197 164.686 41.8028 164.619 41.8679 164.534C41.933 164.447 41.97 164.349 41.9791 164.238H42.4563C42.4473 164.412 42.3885 164.574 42.2801 164.724C42.1734 164.872 42.0333 164.992 41.8598 165.084C41.6862 165.175 41.4955 165.22 41.2876 165.22C41.0671 165.22 40.8746 165.181 40.7101 165.103C40.5474 165.026 40.4118 164.919 40.3034 164.784C40.1967 164.648 40.1163 164.492 40.062 164.317C40.0096 164.14 39.9834 163.953 39.9834 163.756V163.642C39.9834 163.445 40.0096 163.259 40.062 163.083C40.1163 162.906 40.1967 162.75 40.3034 162.614C40.4118 162.479 40.5474 162.372 40.7101 162.294C40.8746 162.217 41.0671 162.178 41.2876 162.178C41.5172 162.178 41.7179 162.225 41.8896 162.319C42.0613 162.411 42.196 162.537 42.2936 162.698C42.393 162.857 42.4473 163.038 42.4563 163.241H41.9791C41.97 163.12 41.9357 163.01 41.876 162.913C41.8182 162.815 41.7387 162.737 41.6374 162.679C41.538 162.62 41.4214 162.59 41.2876 162.59C41.134 162.59 41.0047 162.621 40.8999 162.682C40.7969 162.742 40.7146 162.823 40.6531 162.926C40.5935 163.027 40.5501 163.14 40.523 163.265C40.4977 163.388 40.485 163.514 40.485 163.642V163.756C40.485 163.884 40.4977 164.011 40.523 164.135C40.5483 164.26 40.5908 164.373 40.6504 164.474C40.7119 164.576 40.7941 164.657 40.8972 164.718C41.002 164.778 41.1322 164.808 41.2876 164.808Z" fill="#282828"/>
<path d="M38.7875 162.693V165.166H38.2859V162.232H38.774L38.7875 162.693ZM39.704 162.216L39.7013 162.682C39.6597 162.673 39.62 162.668 39.582 162.666C39.5458 162.662 39.5043 162.66 39.4573 162.66C39.3416 162.66 39.2394 162.678 39.1509 162.715C39.0623 162.751 38.9873 162.801 38.9258 162.866C38.8643 162.932 38.8155 163.009 38.7794 163.1C38.745 163.188 38.7224 163.286 38.7116 163.392L38.5706 163.474C38.5706 163.297 38.5878 163.13 38.6221 162.975C38.6583 162.819 38.7134 162.682 38.7875 162.563C38.8616 162.442 38.9556 162.348 39.0695 162.281C39.1852 162.212 39.3226 162.178 39.4817 162.178C39.5178 162.178 39.5594 162.182 39.6064 162.191C39.6534 162.199 39.6859 162.207 39.704 162.216Z" fill="#282828"/>
<path d="M36.9954 164.664V163.154C36.9954 163.038 36.9719 162.938 36.9249 162.853C36.8797 162.766 36.811 162.699 36.7189 162.652C36.6267 162.605 36.5128 162.582 36.3772 162.582C36.2507 162.582 36.1395 162.603 36.0437 162.647C35.9497 162.69 35.8756 162.747 35.8213 162.818C35.7689 162.888 35.7427 162.964 35.7427 163.045H35.2411C35.2411 162.941 35.2682 162.837 35.3224 162.734C35.3767 162.631 35.4544 162.537 35.5556 162.454C35.6586 162.369 35.7816 162.302 35.9244 162.254C36.069 162.203 36.2299 162.178 36.407 162.178C36.6203 162.178 36.8083 162.214 36.971 162.286C37.1355 162.359 37.2639 162.468 37.3561 162.614C37.4501 162.759 37.4971 162.941 37.4971 163.159V164.526C37.4971 164.624 37.5052 164.727 37.5215 164.838C37.5395 164.948 37.5658 165.043 37.6001 165.122V165.166H37.0768C37.0515 165.108 37.0316 165.031 37.0171 164.935C37.0027 164.838 36.9954 164.747 36.9954 164.664ZM37.0822 163.387L37.0876 163.74H36.5806C36.4378 163.74 36.3103 163.751 36.1982 163.775C36.0862 163.797 35.9922 163.83 35.9162 163.875C35.8403 163.92 35.7825 163.977 35.7427 164.046C35.7029 164.113 35.6831 164.191 35.6831 164.282C35.6831 164.374 35.7038 164.458 35.7454 164.534C35.787 164.61 35.8494 164.671 35.9325 164.716C36.0175 164.759 36.1214 164.781 36.2443 164.781C36.398 164.781 36.5336 164.748 36.6511 164.683C36.7686 164.618 36.8617 164.539 36.9304 164.445C37.0009 164.351 37.0388 164.259 37.0442 164.171L37.2584 164.412C37.2458 164.488 37.2114 164.572 37.1554 164.664C37.0994 164.756 37.0244 164.845 36.9304 164.93C36.8382 165.013 36.7279 165.083 36.5995 165.139C36.473 165.193 36.3302 165.22 36.1711 165.22C35.9723 165.22 35.7978 165.181 35.6478 165.103C35.4996 165.026 35.3839 164.922 35.3007 164.792C35.2194 164.66 35.1787 164.512 35.1787 164.35C35.1787 164.192 35.2094 164.054 35.2709 163.935C35.3324 163.814 35.4209 163.713 35.5366 163.634C35.6523 163.552 35.7915 163.491 35.9542 163.449C36.1169 163.408 36.2986 163.387 36.4992 163.387H37.0822Z" fill="#282828"/>
<path d="M33.5381 165.22C33.3338 165.22 33.1485 165.186 32.9822 165.117C32.8177 165.047 32.6758 164.948 32.5565 164.821C32.439 164.695 32.3486 164.545 32.2853 164.371C32.2221 164.198 32.1904 164.008 32.1904 163.802V163.688C32.1904 163.449 32.2257 163.237 32.2962 163.051C32.3667 162.863 32.4625 162.704 32.5836 162.574C32.7047 162.443 32.8421 162.345 32.9958 162.278C33.1494 162.211 33.3085 162.178 33.473 162.178C33.6827 162.178 33.8634 162.214 34.0153 162.286C34.1689 162.359 34.2946 162.46 34.3922 162.59C34.4898 162.718 34.5621 162.87 34.6091 163.045C34.6561 163.219 34.6796 163.409 34.6796 163.615V163.84H32.4887V163.43H34.178V163.392C34.1707 163.262 34.1436 163.136 34.0966 163.013C34.0514 162.89 33.9791 162.789 33.8797 162.709C33.7803 162.63 33.6447 162.59 33.473 162.59C33.3591 162.59 33.2542 162.614 33.1584 162.663C33.0626 162.71 32.9804 162.781 32.9117 162.875C32.843 162.969 32.7897 163.083 32.7517 163.219C32.7138 163.355 32.6948 163.511 32.6948 163.688V163.802C32.6948 163.941 32.7138 164.072 32.7517 164.195C32.7915 164.316 32.8484 164.423 32.9225 164.515C32.9985 164.607 33.0898 164.68 33.1964 164.732C33.3049 164.784 33.4278 164.811 33.5652 164.811C33.7423 164.811 33.8924 164.774 34.0153 164.702C34.1382 164.63 34.2458 164.533 34.338 164.412L34.6416 164.653C34.5784 164.749 34.4979 164.84 34.4003 164.927C34.3027 165.014 34.1825 165.084 34.0397 165.139C33.8987 165.193 33.7315 165.22 33.5381 165.22Z" fill="#282828"/>
<path d="M31.1601 164.388C31.1601 164.315 31.1439 164.248 31.1113 164.187C31.0806 164.124 31.0164 164.067 30.9188 164.016C30.823 163.964 30.6784 163.919 30.485 163.881C30.3223 163.846 30.175 163.806 30.043 163.759C29.9128 163.712 29.8017 163.655 29.7095 163.588C29.6191 163.521 29.5495 163.442 29.5007 163.352C29.4519 163.261 29.4275 163.156 29.4275 163.035C29.4275 162.919 29.4528 162.81 29.5034 162.706C29.5558 162.603 29.629 162.512 29.723 162.433C29.8188 162.353 29.9336 162.291 30.0674 162.246C30.2012 162.2 30.3503 162.178 30.5148 162.178C30.7498 162.178 30.9504 162.219 31.1168 162.302C31.2831 162.386 31.4105 162.497 31.4991 162.636C31.5877 162.773 31.6319 162.926 31.6319 163.094H31.1303C31.1303 163.013 31.1059 162.934 31.0571 162.858C31.0101 162.781 30.9405 162.716 30.8483 162.666C30.7579 162.615 30.6468 162.59 30.5148 162.59C30.3756 162.59 30.2626 162.612 30.1759 162.655C30.0909 162.697 30.0285 162.75 29.9888 162.815C29.9508 162.88 29.9318 162.949 29.9318 163.021C29.9318 163.075 29.9409 163.124 29.9589 163.167C29.9788 163.209 30.0132 163.248 30.062 163.284C30.1108 163.318 30.1795 163.351 30.268 163.382C30.3566 163.412 30.4696 163.443 30.607 163.474C30.8474 163.528 31.0453 163.593 31.2008 163.669C31.3563 163.745 31.472 163.838 31.5479 163.948C31.6238 164.059 31.6618 164.192 31.6618 164.35C31.6618 164.478 31.6347 164.596 31.5804 164.702C31.528 164.809 31.4512 164.901 31.3499 164.979C31.2505 165.055 31.1312 165.114 30.992 165.158C30.8546 165.199 30.7001 165.22 30.5284 165.22C30.2699 165.22 30.0511 165.174 29.8722 165.082C29.6932 164.99 29.5576 164.87 29.4654 164.724C29.3732 164.577 29.3271 164.423 29.3271 164.26H29.8315C29.8387 164.398 29.8785 164.507 29.9508 164.588C30.0231 164.668 30.1117 164.725 30.2165 164.759C30.3214 164.792 30.4253 164.808 30.5284 164.808C30.6657 164.808 30.7805 164.79 30.8727 164.754C30.9667 164.718 31.0381 164.668 31.0869 164.605C31.1357 164.541 31.1601 164.469 31.1601 164.388Z" fill="#282828"/>
<path d="M21.5478 166.479C23.1665 166.479 24.4786 165.167 24.4786 163.548C24.4786 161.929 23.1665 160.617 21.5478 160.617C19.9291 160.617 18.6169 161.929 18.6169 163.548C18.6169 165.167 19.9291 166.479 21.5478 166.479Z" stroke="#292D32" stroke-width="0.462766" stroke-linecap="round" stroke-linejoin="round"/>
<path d="M24.7872 166.787L24.1702 166.17" stroke="#292D32" stroke-width="0.462766" stroke-linecap="round" stroke-linejoin="round"/>
<g filter="url(#filter0_d_1833_2120)">
<path d="M159.1 149.88C159.131 148.463 160.853 147.782 161.845 148.795L173.682 160.87C174.655 161.863 173.987 163.54 172.598 163.591L166.525 163.818C166.15 163.832 165.792 163.977 165.513 164.228L161.399 167.929C160.356 168.867 158.696 168.105 158.727 166.702L159.1 149.88Z" fill="#647EDD"/>
</g>
<path d="M94 136H153M97.5 140.5H149M102 145H144" stroke="#F5F8FF" stroke-width="0.5"/>
<circle cx="10" cy="124" r="10" fill="#C8F0FA"/>
<circle cx="200.5" cy="14.5" r="5.5" fill="#B9FAF8"/>
<circle cx="201.5" cy="13.5" r="5.3" stroke="#F5F8FF" stroke-width="0.4"/>
<circle cx="214" cy="4" r="3" fill="#B9FAF8"/>
<circle cx="215" cy="3" r="2.8" stroke="#F5F8FF" stroke-width="0.4"/>
<defs>
<filter id="filter0_d_1833_2120" x="31.0032" y="20.5871" width="278.267" height="282.884" filterUnits="userSpaceOnUse" color-interpolation-filters="sRGB">
<feFlood flood-opacity="0" result="BackgroundImageFix"/>
<feColorMatrix in="SourceAlpha" type="matrix" values="0 0 0 0 0 0 0 0 0 0 0 0 0 0 0 0 0 0 127 0" result="hardAlpha"/>
<feOffset dx="3.70213" dy="3.70213"/>
<feGaussianBlur stdDeviation="65.7128"/>
<feComposite in2="hardAlpha" operator="out"/>
<feColorMatrix type="matrix" values="0 0 0 0 0 0 0 0 0 0 0 0 0 0 0 0 0 0 0.86 0"/>
<feBlend mode="normal" in2="BackgroundImageFix" result="effect1_dropShadow_1833_2120"/>
<feBlend mode="normal" in="SourceGraphic" in2="effect1_dropShadow_1833_2120" result="shape"/>
</filter>
</defs>
</svg>
