<svg width="37" height="35" viewBox="0 0 37 35" fill="none" xmlns="http://www.w3.org/2000/svg">
<path d="M33.8118 14.816C33.2402 14.8171 32.6838 15.0003 32.2235 15.3391C31.7631 15.6779 31.4228 16.1546 31.2518 16.7H19.8958V13.948H27.5318C27.69 13.9476 27.8445 13.9003 27.9758 13.812L31.6158 11.384C31.988 11.5715 32.3991 11.6688 32.8158 11.668C33.4038 11.669 33.9759 11.4771 34.4444 11.1218C34.9128 10.7665 35.2519 10.2674 35.4096 9.7009C35.5673 9.13445 35.5349 8.53193 35.3174 7.98565C35.0998 7.43938 34.7092 6.9795 34.2053 6.67648C33.7014 6.37346 33.1121 6.24402 32.5276 6.30801C31.9431 6.37199 31.3957 6.62585 30.9693 7.03071C30.5429 7.43556 30.261 7.96906 30.1668 8.54945C30.0726 9.12985 30.1713 9.72512 30.4478 10.244L27.2998 12.348H19.8958V9.44004H23.7638C23.8917 9.43964 24.0177 9.40855 24.1312 9.34939C24.2446 9.29023 24.3422 9.20472 24.4158 9.10004L26.0998 6.74804C26.7227 6.64253 27.2881 6.32007 27.6961 5.83773C28.104 5.35538 28.3282 4.74426 28.3289 4.11253C28.3296 3.4808 28.1067 2.86919 27.6998 2.38596C27.2929 1.90274 26.7281 1.57905 26.1055 1.47219C25.4829 1.36533 24.8425 1.48219 24.2978 1.80209C23.753 2.12199 23.339 2.6243 23.129 3.22011C22.919 3.81592 22.9266 4.46681 23.1504 5.05758C23.3742 5.64835 23.7998 6.14089 24.3518 6.44804L23.3638 7.84004H19.8958V5.76004C19.7843 4.67672 19.3479 3.65242 18.6439 2.82159C17.9398 1.99075 17.001 1.39221 15.9506 1.10453C14.9003 0.816854 13.7875 0.853481 12.7583 1.2096C11.7291 1.56573 10.8317 2.22471 10.1838 3.10004C8.53257 3.22392 6.98886 3.96619 5.86101 5.17856C4.73317 6.39094 4.10422 7.98418 4.0998 9.64004C4.10048 10.029 4.13528 10.4172 4.2038 10.8C3.08871 11.3426 2.15051 12.1905 1.49821 13.2452C0.84592 14.2999 0.506324 15.518 0.518891 16.758C0.531459 17.998 0.895675 19.209 1.56921 20.2502C2.24275 21.2915 3.19795 22.1202 4.3238 22.64C3.87937 23.5363 3.64932 24.5236 3.6518 25.524C3.65391 27.2632 4.34573 28.9305 5.57551 30.1603C6.80529 31.3901 8.47263 32.0819 10.2118 32.084H10.6118C11.0954 32.7093 11.7163 33.2149 12.4266 33.5617C13.1368 33.9085 13.9174 34.0872 14.7078 34.084C15.8926 34.0883 17.0451 33.6972 17.9826 32.9727C18.9201 32.2482 19.5891 31.2317 19.8838 30.084C19.8966 30.0235 19.9033 29.9619 19.9038 29.9V27.16H23.3598L24.3478 28.552C23.7928 28.86 23.3646 29.3545 23.1392 29.9478C22.9138 30.5412 22.9056 31.1952 23.1161 31.794C23.3266 32.3928 23.7423 32.8978 24.2894 33.2196C24.8366 33.5413 25.48 33.659 26.1056 33.5519C26.7313 33.4448 27.2988 33.1197 27.7078 32.6342C28.1167 32.1488 28.3406 31.5343 28.34 30.8995C28.3393 30.2648 28.1139 29.6507 27.7039 29.1662C27.2939 28.6816 26.7257 28.3578 26.0998 28.252L24.4158 25.9C24.3418 25.7961 24.244 25.7114 24.1306 25.6529C24.0172 25.5945 23.8914 25.564 23.7638 25.564H19.8958V22.672H27.2998L30.4518 24.776C30.1462 25.3445 30.054 26.0034 30.1919 26.6338C30.3297 27.2643 30.6884 27.8247 31.2033 28.2137C31.7182 28.6028 32.3552 28.7949 32.9993 28.7553C33.6435 28.7157 34.2522 28.447 34.7155 27.9979C35.1789 27.5487 35.4663 26.9486 35.5259 26.306C35.5855 25.6635 35.4133 25.0208 35.0405 24.494C34.6676 23.9673 34.1186 23.5913 33.4928 23.434C32.8669 23.2766 32.2054 23.3483 31.6278 23.636L27.9878 21.208C27.8565 21.1198 27.702 21.0725 27.5438 21.072H19.8958V18.3H31.2518C31.3997 18.7739 31.6762 19.1974 32.0504 19.5235C32.4246 19.8496 32.882 20.0656 33.3716 20.1474C33.8612 20.2291 34.3639 20.1736 34.8238 19.9868C35.2837 19.8 35.6828 19.4893 35.9767 19.0893C36.2706 18.6893 36.4478 18.2156 36.4887 17.7209C36.5295 17.2262 36.4324 16.7299 36.2081 16.2871C35.9837 15.8443 35.641 15.4723 35.218 15.2127C34.7949 14.953 34.3082 14.8157 33.8118 14.816ZM32.8078 7.90004C33.0222 7.90004 33.2318 7.96362 33.41 8.08273C33.5883 8.20184 33.7272 8.37114 33.8093 8.56921C33.8913 8.76729 33.9128 8.98524 33.871 9.19552C33.8291 9.4058 33.7259 9.59894 33.5743 9.75054C33.4227 9.90215 33.2295 10.0054 33.0193 10.0472C32.809 10.089 32.591 10.0676 32.393 9.98553C32.1949 9.90348 32.0256 9.76454 31.9065 9.58628C31.7874 9.40802 31.7238 9.19844 31.7238 8.98404C31.7248 8.69687 31.8394 8.42176 32.0425 8.2187C32.2455 8.01564 32.5206 7.9011 32.8078 7.90004ZM25.6478 3.02004C25.8622 3.02004 26.0718 3.08362 26.25 3.20273C26.4283 3.32184 26.5672 3.49114 26.6493 3.68921C26.7313 3.88729 26.7528 4.10524 26.711 4.31552C26.6691 4.52579 26.5659 4.71895 26.4143 4.87055C26.2627 5.02215 26.0695 5.12539 25.8593 5.16721C25.649 5.20904 25.431 5.18757 25.233 5.10553C25.0349 5.02348 24.8656 4.88454 24.7465 4.70628C24.6274 4.52802 24.5638 4.31844 24.5638 4.10404C24.5649 3.81687 24.6794 3.54176 24.8825 3.3387C25.0855 3.13564 25.3606 3.0211 25.6478 3.02004ZM25.6478 31.98C25.4334 31.98 25.2238 31.9165 25.0456 31.7974C24.8673 31.6782 24.7284 31.5089 24.6463 31.3109C24.5643 31.1128 24.5428 30.8948 24.5846 30.6846C24.6265 30.4743 24.7297 30.2811 24.8813 30.1295C25.0329 29.9779 25.226 29.8747 25.4363 29.8329C25.6466 29.791 25.8645 29.8125 26.0626 29.8946C26.2607 29.9766 26.43 30.1155 26.5491 30.2938C26.6682 30.4721 26.7318 30.6816 26.7318 30.896C26.7307 31.1832 26.6162 31.4583 26.4131 31.6614C26.2101 31.8644 25.935 31.979 25.6478 31.98ZM33.8918 26.016C33.8918 26.2304 33.8282 26.44 33.7091 26.6183C33.59 26.7965 33.4207 26.9355 33.2226 27.0175C33.0246 27.0996 32.8066 27.121 32.5963 27.0792C32.386 27.0374 32.1929 26.9341 32.0413 26.7825C31.8897 26.6309 31.7864 26.4378 31.7446 26.2275C31.7028 26.0172 31.7243 25.7993 31.8063 25.6012C31.8884 25.4031 32.0273 25.2338 32.2056 25.1147C32.3838 24.9956 32.5934 24.932 32.8078 24.932C33.095 24.9331 33.3701 25.0476 33.5731 25.2507C33.7762 25.4538 33.8907 25.7289 33.8918 26.016ZM18.2918 29.792C18.0604 30.5676 17.5853 31.2479 16.9368 31.7321C16.2884 32.2163 15.5011 32.4785 14.6918 32.48C14.0848 32.4781 13.4882 32.3226 12.9574 32.0282C12.4266 31.7338 11.9788 31.3099 11.6558 30.796C11.5836 30.6821 11.4838 30.5882 11.3656 30.5232C11.2474 30.4581 11.1147 30.424 10.9798 30.424H10.8678C10.6427 30.458 10.4155 30.4767 10.1878 30.48C8.87849 30.478 7.62293 29.9591 6.69412 29.0363C5.7653 28.1135 5.23834 26.8613 5.2278 25.552C5.22948 25.5227 5.22948 25.4934 5.2278 25.464C5.22885 24.878 5.34538 24.2979 5.57073 23.757C5.79609 23.216 6.12585 22.7247 6.54117 22.3113C6.95649 21.8978 7.44921 21.5703 7.99119 21.3473C8.53317 21.1244 9.11376 21.0105 9.6998 21.012C9.91197 21.012 10.1155 20.9278 10.2655 20.7777C10.4155 20.6277 10.4998 20.4242 10.4998 20.212C10.4998 19.9999 10.4155 19.7964 10.2655 19.6464C10.1155 19.4963 9.91197 19.412 9.6998 19.412C8.8745 19.4121 8.05803 19.5819 7.30111 19.9108C6.54418 20.2397 5.86297 20.7208 5.2998 21.324C4.35179 20.9651 3.53678 20.3238 2.96486 19.4868C2.39293 18.6499 2.09164 17.6576 2.10167 16.6439C2.1117 15.6303 2.43257 14.6441 3.02095 13.8187C3.60933 12.9932 4.43687 12.3682 5.3918 12.028C5.58467 11.9596 5.74399 11.8199 5.837 11.6376C5.93 11.4553 5.94961 11.2443 5.8918 11.048C5.75887 10.5907 5.69417 10.1163 5.6998 9.64004C5.70287 8.50151 6.09659 7.39852 6.81518 6.5154C7.53376 5.63227 8.53367 5.02252 9.6478 4.78804C9.52431 5.65573 9.60372 6.54023 9.8798 7.37204C9.93474 7.52412 10.0345 7.65598 10.1659 7.75024C10.2973 7.8445 10.4541 7.89673 10.6158 7.90004C10.7098 7.89968 10.8032 7.88345 10.8918 7.85204C10.9907 7.81554 11.0815 7.75984 11.1588 7.68813C11.2362 7.61642 11.2986 7.53013 11.3425 7.43422C11.3863 7.33831 11.4108 7.23466 11.4145 7.12926C11.4181 7.02386 11.4009 6.91877 11.3638 6.82004C11.13 5.97457 11.13 5.08151 11.3638 4.23604C11.7943 3.58837 12.4134 3.08856 13.1373 2.80423C13.8612 2.5199 14.6549 2.46477 15.4111 2.6463C16.1674 2.82783 16.8496 3.23726 17.3655 3.8192C17.8814 4.40114 18.2062 5.12751 18.2958 5.90004V11.552C17.7309 10.932 17.0427 10.4368 16.2754 10.0979C15.5082 9.75901 14.6786 9.584 13.8398 9.58404C13.6276 9.58404 13.4241 9.66833 13.2741 9.81836C13.1241 9.96838 13.0398 10.1719 13.0398 10.384C13.0398 10.5962 13.1241 10.7997 13.2741 10.9497C13.4241 11.0998 13.6276 11.184 13.8398 11.184C15.0206 11.1851 16.1528 11.6544 16.9881 12.4889C17.8234 13.3235 18.2937 14.4553 18.2958 15.636V21.38C17.7302 20.7608 17.042 20.2661 16.2748 19.9272C15.5077 19.5884 14.6784 19.413 13.8398 19.412C13.6276 19.412 13.4241 19.4963 13.2741 19.6464C13.1241 19.7964 13.0398 19.9999 13.0398 20.212C13.0398 20.4242 13.1241 20.6277 13.2741 20.7777C13.4241 20.9278 13.6276 21.012 13.8398 21.012C15.021 21.0142 16.1531 21.4843 16.9883 22.3195C17.8235 23.1547 18.2937 24.2869 18.2958 25.468L18.2918 29.792ZM33.8078 18.592C33.5941 18.5905 33.3856 18.5257 33.2086 18.406C33.0316 18.2863 32.8939 18.1169 32.8128 17.9192C32.7318 17.7214 32.711 17.5042 32.753 17.2946C32.7951 17.0851 32.8982 16.8927 33.0493 16.7416C33.2004 16.5905 33.3929 16.4874 33.6024 16.4453C33.8119 16.4032 34.0292 16.424 34.2269 16.5051C34.4247 16.5861 34.5941 16.7238 34.7138 16.9008C34.8335 17.0779 34.8982 17.2863 34.8998 17.5C34.8987 17.7879 34.7836 18.0636 34.5797 18.2668C34.3758 18.47 34.0997 18.584 33.8118 18.584L33.8078 18.592Z" fill="#246BFD"/>
</svg>
