<svg width="24" height="24" viewBox="0 0 24 24" fill="none" xmlns="http://www.w3.org/2000/svg">
<g id="arrow_left_alt">
<mask id="mask0_132_2532" style="mask-type:alpha" maskUnits="userSpaceOnUse" x="0" y="0" width="24" height="24">
<rect id="Bounding box" x="24" y="24" width="24" height="24" transform="rotate(-180 24 24)" fill="#D9D9D9"/>
</mask>
<g mask="url(#mask0_132_2532)">
<g id="arrow_left_alt_2">
<mask id="path-2-inside-1_132_2532" fill="white">
<path d="M14 6L20 12L14 18L12.6 16.55L16.15 13L4 13L4 11L16.15 11L12.6 7.45L14 6Z"/>
</mask>
<path d="M14 6L20 12L14 18L12.6 16.55L16.15 13L4 13L4 11L16.15 11L12.6 7.45L14 6Z" fill="#1C1B1F"/>
<path d="M14 6L16.8284 3.17158L13.9499 0.293093L11.1224 3.22163L14 6ZM20 12L22.8284 14.8284L25.6569 12L22.8284 9.17157L20 12ZM14 18L11.1224 20.7784L13.9499 23.7069L16.8284 20.8284L14 18ZM12.6 16.55L9.77158 13.7216L6.99233 16.5008L9.7224 19.3284L12.6 16.55ZM16.15 13L18.9784 15.8284L25.8069 9L16.15 9V13ZM4 13H4.76837e-06V17H4V13ZM4 11V7H4.76837e-06L4.76837e-06 11H4ZM16.15 11V15H25.8069L18.9784 8.17158L16.15 11ZM12.6 7.45L9.7224 4.67162L6.99233 7.49919L9.77158 10.2784L12.6 7.45ZM11.1716 8.82843L17.1716 14.8284L22.8284 9.17157L16.8284 3.17158L11.1716 8.82843ZM17.1716 9.17157L11.1716 15.1716L16.8284 20.8284L22.8284 14.8284L17.1716 9.17157ZM16.8776 15.2216L15.4776 13.7716L9.7224 19.3284L11.1224 20.7784L16.8776 15.2216ZM15.4284 19.3784L18.9784 15.8284L13.3216 10.1716L9.77158 13.7216L15.4284 19.3784ZM16.15 9L4 9L4 17L16.15 17V9ZM8 13L8 11L4.76837e-06 11V13L8 13ZM4 15L16.15 15V7L4 7L4 15ZM18.9784 8.17158L15.4284 4.62158L9.77158 10.2784L13.3216 13.8284L18.9784 8.17158ZM15.4776 10.2284L16.8776 8.77838L11.1224 3.22163L9.7224 4.67162L15.4776 10.2284Z" fill="black" mask="url(#path-2-inside-1_132_2532)"/>
</g>
</g>
</g>
</svg>
