<svg width="40" height="41" viewBox="0 0 40 41" fill="none" xmlns="http://www.w3.org/2000/svg">
<path d="M36.6668 28.4002V8.28349C36.6668 6.28349 35.0335 4.80015 33.0502 4.96682H32.9502C29.4502 5.26682 24.1335 7.05015 21.1668 8.91682L20.8835 9.10015C20.4002 9.40015 19.6002 9.40015 19.1168 9.10015L18.7002 8.85015C15.7335 7.00015 10.4335 5.23349 6.9335 4.95015C4.95016 4.78349 3.3335 6.28348 3.3335 8.26682V28.4002C3.3335 30.0002 4.6335 31.5002 6.2335 31.7002L6.71683 31.7668C10.3335 32.2502 15.9168 34.0835 19.1168 35.8335L19.1835 35.8668C19.6335 36.1168 20.3502 36.1168 20.7835 35.8668C23.9835 34.1002 29.5835 32.2502 33.2168 31.7668L33.7668 31.7002C35.3668 31.5002 36.6668 30.0002 36.6668 28.4002Z" stroke="#246BFD" stroke-width="2.5" stroke-linecap="round" stroke-linejoin="round"/>
<path d="M20 9.65039V34.6504" stroke="#246BFD" stroke-width="2.5" stroke-linecap="round" stroke-linejoin="round"/>
<path d="M12.9165 14.6504H9.1665" stroke="#246BFD" stroke-width="2.5" stroke-linecap="round" stroke-linejoin="round"/>
<path d="M14.1665 19.6504H9.1665" stroke="#246BFD" stroke-width="2.5" stroke-linecap="round" stroke-linejoin="round"/>
</svg>
