<svg width="41" height="41" viewBox="0 0 41 41" fill="none" xmlns="http://www.w3.org/2000/svg">
<path d="M13.8327 37.1667H27.1661C33.8661 37.1667 35.0661 34.4833 35.4161 31.2167L36.6661 17.8833C37.1161 13.8167 35.9494 10.5 28.8327 10.5H12.1661C5.04939 10.5 3.88272 13.8167 4.33272 17.8833L5.58272 31.2167C5.93272 34.4833 7.13272 37.1667 13.8327 37.1667Z" stroke="#246BFD" stroke-width="2.5" stroke-miterlimit="10" stroke-linecap="round" stroke-linejoin="round"/>
<path d="M13.833 10.5007V9.16732C13.833 6.21732 13.833 3.83398 19.1663 3.83398H21.833C27.1663 3.83398 27.1663 6.21732 27.1663 9.16732V10.5007" stroke="#246BFD" stroke-width="2.5" stroke-miterlimit="10" stroke-linecap="round" stroke-linejoin="round"/>
<path d="M23.8337 22.1667V23.8333C23.8337 23.85 23.8337 23.85 23.8337 23.8667C23.8337 25.6833 23.817 27.1667 20.5003 27.1667C17.2003 27.1667 17.167 25.7 17.167 23.8833V22.1667C17.167 20.5 17.167 20.5 18.8337 20.5H22.167C23.8337 20.5 23.8337 20.5 23.8337 22.1667Z" stroke="#246BFD" stroke-width="2.5" stroke-miterlimit="10" stroke-linecap="round" stroke-linejoin="round"/>
<path d="M36.583 18.834C32.733 21.634 28.333 23.3007 23.833 23.8673" stroke="#246BFD" stroke-width="2.5" stroke-miterlimit="10" stroke-linecap="round" stroke-linejoin="round"/>
<path d="M4.86719 19.2832C8.61719 21.8499 12.8505 23.3999 17.1672 23.8832" stroke="#246BFD" stroke-width="2.5" stroke-miterlimit="10" stroke-linecap="round" stroke-linejoin="round"/>
</svg>
