<svg width="41" height="41" viewBox="0 0 41 41" fill="none" xmlns="http://www.w3.org/2000/svg">
<path d="M35.5 12.1668V28.8335C35.5 33.8335 33 37.1668 27.1667 37.1668H13.8333C8 37.1668 5.5 33.8335 5.5 28.8335V12.1668C5.5 7.16683 8 3.8335 13.8333 3.8335H27.1667C33 3.8335 35.5 7.16683 35.5 12.1668Z" stroke="#246BFD" stroke-width="2.5" stroke-miterlimit="10" stroke-linecap="round" stroke-linejoin="round"/>
<path d="M24.6665 8V11.3333C24.6665 13.1667 26.1665 14.6667 27.9998 14.6667H31.3332" stroke="#246BFD" stroke-width="2.5" stroke-miterlimit="10" stroke-linecap="round" stroke-linejoin="round"/>
<path d="M12.9667 26.3168C12.4167 24.6001 13.0667 22.4835 14.85 21.9002C15.8 21.6002 16.9667 21.8501 17.6167 22.7668C18.2334 21.8168 19.45 21.6002 20.3834 21.9002C22.1834 22.4835 22.8167 24.6001 22.2834 26.3168C21.4334 29.0335 18.45 30.4501 17.6167 30.4501C16.8 30.4334 13.8501 29.0501 12.9667 26.3168Z" stroke="#246BFD" stroke-width="2.5" stroke-linecap="round" stroke-linejoin="round"/>
</svg>
