<svg width="41" height="41" viewBox="0 0 41 41" fill="none" xmlns="http://www.w3.org/2000/svg">
<path d="M14.9531 24.3824C14.9531 26.5324 16.6031 28.2658 18.6531 28.2658H22.8365C24.6198 28.2658 26.0698 26.7491 26.0698 24.8824C26.0698 22.8491 25.1865 22.1324 23.8698 21.6658L17.1531 19.3324C15.8365 18.8658 14.9531 18.1491 14.9531 16.1158C14.9531 14.2491 16.4031 12.7324 18.1865 12.7324H22.3698C24.4198 12.7324 26.0698 14.4658 26.0698 16.6158" stroke="#246BFD" stroke-width="2.5" stroke-linecap="round" stroke-linejoin="round"/>
<path d="M20.5 10.5V30.5" stroke="#246BFD" stroke-width="2.5" stroke-linecap="round" stroke-linejoin="round"/>
<path d="M20.4997 37.1673C29.7044 37.1673 37.1663 29.7054 37.1663 20.5007C37.1663 11.2959 29.7044 3.83398 20.4997 3.83398C11.2949 3.83398 3.83301 11.2959 3.83301 20.5007C3.83301 29.7054 11.2949 37.1673 20.4997 37.1673Z" stroke="#246BFD" stroke-width="2.5" stroke-linecap="round" stroke-linejoin="round"/>
</svg>
