<svg width="41" height="41" viewBox="0 0 41 41" fill="none" xmlns="http://www.w3.org/2000/svg">
<path d="M37.1668 22.1668V15.5002C37.1668 7.16683 33.8335 3.8335 25.5002 3.8335H15.5002C7.16683 3.8335 3.8335 7.16683 3.8335 15.5002V25.5002C3.8335 33.8335 7.16683 37.1668 15.5002 37.1668H22.1668" stroke="#246BFD" stroke-width="2.5" stroke-linecap="round" stroke-linejoin="round"/>
<path d="M12.7173 24.6496L16.684 19.4996C17.2506 18.7663 18.3006 18.633 19.034 19.1996L22.084 21.5996C22.8173 22.1663 23.8673 22.033 24.4339 21.3163L28.284 16.3496" stroke="#246BFD" stroke-width="2.5" stroke-linecap="round" stroke-linejoin="round"/>
<path d="M32.9669 26.8664L33.4335 27.8164C33.6669 28.2831 34.2502 28.7164 34.7668 28.8164L35.4002 28.9164C37.3002 29.2331 37.7502 30.6331 36.3835 32.0164L35.8002 32.5997C35.4168 32.9997 35.2002 33.7664 35.3169 34.2997L35.4002 34.6497C35.9169 36.9497 34.7002 37.833 32.7002 36.633L32.2668 36.3831C31.7502 36.0831 30.9169 36.0831 30.4002 36.3831L29.9668 36.633C27.9502 37.8497 26.7335 36.9497 27.2668 34.6497L27.3502 34.2997C27.4668 33.7664 27.2502 32.9997 26.8669 32.5997L26.2835 32.0164C24.9169 30.6331 25.3668 29.2331 27.2668 28.9164L27.9002 28.8164C28.4002 28.7331 29.0002 28.2831 29.2335 27.8164L29.7002 26.8664C30.6002 25.0497 32.0669 25.0497 32.9669 26.8664Z" stroke="#246BFD" stroke-width="2.5" stroke-linecap="round" stroke-linejoin="round"/>
</svg>
