<svg width="41" height="41" viewBox="0 0 41 41" fill="none" xmlns="http://www.w3.org/2000/svg">
<path d="M3.83301 37.166H37.1663" stroke="#246BFD" stroke-width="2.5" stroke-miterlimit="10" stroke-linecap="round" stroke-linejoin="round"/>
<path d="M5.41699 37.1668L5.50032 17.1167C5.50032 16.1001 5.98366 15.1335 6.78366 14.5002L18.4503 5.4168C19.6503 4.48346 21.3337 4.48346 22.5503 5.4168L34.217 14.4835C35.0337 15.1168 35.5003 16.0834 35.5003 17.1167V37.1668" stroke="#246BFD" stroke-width="2.5" stroke-miterlimit="10" stroke-linejoin="round"/>
<path d="M22.1663 28.834H18.833C17.4497 28.834 16.333 29.9507 16.333 31.334V37.1673H24.6663V31.334C24.6663 29.9507 23.5497 28.834 22.1663 28.834Z" stroke="#246BFD" stroke-width="2.5" stroke-miterlimit="10" stroke-linejoin="round"/>
<path d="M16.333 23.4173H12.9997C12.083 23.4173 11.333 22.6673 11.333 21.7507V19.2507C11.333 18.334 12.083 17.584 12.9997 17.584H16.333C17.2497 17.584 17.9997 18.334 17.9997 19.2507V21.7507C17.9997 22.6673 17.2497 23.4173 16.333 23.4173Z" stroke="#246BFD" stroke-width="2.5" stroke-miterlimit="10" stroke-linejoin="round"/>
<path d="M28 23.4173H24.6667C23.75 23.4173 23 22.6673 23 21.7507V19.2507C23 18.334 23.75 17.584 24.6667 17.584H28C28.9167 17.584 29.6667 18.334 29.6667 19.2507V21.7507C29.6667 22.6673 28.9167 23.4173 28 23.4173Z" stroke="#246BFD" stroke-width="2.5" stroke-miterlimit="10" stroke-linejoin="round"/>
<path d="M32.1675 12.166L32.1175 7.16602H24.7842" stroke="#246BFD" stroke-width="2.5" stroke-miterlimit="10" stroke-linecap="round" stroke-linejoin="round"/>
</svg>
