<svg width="96" height="27" viewBox="0 0 96 27" fill="none" xmlns="http://www.w3.org/2000/svg">
<path d="M0.162626 26.5V0.382828H3.32525V23.6944H15.4657V26.5H0.162626ZM41.382 13.4414C41.382 16.196 40.8846 18.5764 39.8899 20.5828C38.8952 22.5892 37.5307 24.1365 35.7964 25.2247C34.062 26.313 32.0811 26.8571 29.8537 26.8571C27.6263 26.8571 25.6454 26.313 23.911 25.2247C22.1767 24.1365 20.8122 22.5892 19.8175 20.5828C18.8228 18.5764 18.3254 16.196 18.3254 13.4414C18.3254 10.6869 18.8228 8.3064 19.8175 6.3C20.8122 4.2936 22.1767 2.7463 23.911 1.65808C25.6454 0.569865 27.6263 0.0257575 29.8537 0.0257575C32.0811 0.0257575 34.062 0.569865 35.7964 1.65808C37.5307 2.7463 38.8952 4.2936 39.8899 6.3C40.8846 8.3064 41.382 10.6869 41.382 13.4414ZM38.3214 13.4414C38.3214 11.18 37.943 9.27134 37.1864 7.71553C36.4382 6.15972 35.4223 4.98224 34.1385 4.18308C32.8633 3.38392 31.435 2.98434 29.8537 2.98434C28.2724 2.98434 26.8398 3.38392 25.5561 4.18308C24.2808 4.98224 23.2649 6.15972 22.5082 7.71553C21.7601 9.27134 21.386 11.18 21.386 13.4414C21.386 15.7029 21.7601 17.6115 22.5082 19.1673C23.2649 20.7231 24.2808 21.9006 25.5561 22.6997C26.8398 23.4989 28.2724 23.8985 29.8537 23.8985C31.435 23.8985 32.8633 23.4989 34.1385 22.6997C35.4223 21.9006 36.4382 20.7231 37.1864 19.1673C37.943 17.6115 38.3214 15.7029 38.3214 13.4414ZM64.5533 8.54445C64.2728 7.68577 63.9029 6.91637 63.4438 6.23624C62.9933 5.5476 62.4534 4.96098 61.8243 4.47639C61.2037 3.99179 60.498 3.62197 59.7074 3.36692C58.9167 3.11187 58.0495 2.98434 57.1058 2.98434C55.5585 2.98434 54.1515 3.38392 52.8848 4.18308C51.618 4.98224 50.6106 6.15972 49.8624 7.71553C49.1143 9.27134 48.7402 11.18 48.7402 13.4414C48.7402 15.7029 49.1185 17.6115 49.8752 19.1673C50.6318 20.7231 51.6563 21.9006 52.9485 22.6997C54.2408 23.4989 55.6946 23.8985 57.3099 23.8985C58.8062 23.8985 60.1239 23.5797 61.2632 22.942C62.4109 22.2959 63.3036 21.3862 63.9412 20.213C64.5873 19.0313 64.9104 17.6412 64.9104 16.0429L65.8796 16.247H58.024V13.4414H67.971V16.247C67.971 18.3979 67.5119 20.2683 66.5937 21.8581C65.684 23.4479 64.4258 24.6806 62.819 25.5563C61.2207 26.4235 59.3843 26.8571 57.3099 26.8571C54.9974 26.8571 52.9655 26.313 51.2142 25.2247C49.4713 24.1365 48.1111 22.5892 47.1334 20.5828C46.1642 18.5764 45.6796 16.196 45.6796 13.4414C45.6796 11.3755 45.9559 9.51789 46.5085 7.86856C47.0696 6.21073 47.8603 4.79945 48.8805 3.63472C49.9007 2.46999 51.1079 1.57732 52.5022 0.956692C53.8965 0.336069 55.431 0.0257575 57.1058 0.0257575C58.4831 0.0257575 59.7669 0.234049 60.9571 0.650631C62.1558 1.05871 63.2228 1.64108 64.158 2.39773C65.1017 3.14587 65.8881 4.0428 66.5172 5.08851C67.1463 6.12572 67.5799 7.27769 67.818 8.54445H64.5533ZM95.424 13.4414C95.424 16.196 94.9266 18.5764 93.9319 20.5828C92.9372 22.5892 91.5727 24.1365 89.8384 25.2247C88.104 26.313 86.1231 26.8571 83.8957 26.8571C81.6683 26.8571 79.6874 26.313 77.953 25.2247C76.2187 24.1365 74.8542 22.5892 73.8595 20.5828C72.8648 18.5764 72.3674 16.196 72.3674 13.4414C72.3674 10.6869 72.8648 8.3064 73.8595 6.3C74.8542 4.2936 76.2187 2.7463 77.953 1.65808C79.6874 0.569865 81.6683 0.0257575 83.8957 0.0257575C86.1231 0.0257575 88.104 0.569865 89.8384 1.65808C91.5727 2.7463 92.9372 4.2936 93.9319 6.3C94.9266 8.3064 95.424 10.6869 95.424 13.4414ZM92.3634 13.4414C92.3634 11.18 91.9851 9.27134 91.2284 7.71553C90.4803 6.15972 89.4643 4.98224 88.1806 4.18308C86.9053 3.38392 85.477 2.98434 83.8957 2.98434C82.3144 2.98434 80.8819 3.38392 79.5981 4.18308C78.3229 4.98224 77.3069 6.15972 76.5503 7.71553C75.8021 9.27134 75.428 11.18 75.428 13.4414C75.428 15.7029 75.8021 17.6115 76.5503 19.1673C77.3069 20.7231 78.3229 21.9006 79.5981 22.6997C80.8819 23.4989 82.3144 23.8985 83.8957 23.8985C85.477 23.8985 86.9053 23.4989 88.1806 22.6997C89.4643 21.9006 90.4803 20.7231 91.2284 19.1673C91.9851 17.6115 92.3634 15.7029 92.3634 13.4414Z" fill="#F9F5FF"/>
</svg>
