<svg width="41" height="41" viewBox="0 0 41 41" fill="none" xmlns="http://www.w3.org/2000/svg">
<path d="M15.7668 18.6165C15.6001 18.5998 15.4001 18.5998 15.2168 18.6165C11.2501 18.4831 8.1001 15.2331 8.1001 11.2331C8.1001 7.1498 11.4001 3.83313 15.5001 3.83313C19.5834 3.83313 22.9001 7.1498 22.9001 11.2331C22.8834 15.2331 19.7334 18.4831 15.7668 18.6165Z" stroke="#246BFD" stroke-width="2.5" stroke-linecap="round" stroke-linejoin="round"/>
<path d="M27.85 7.1665C31.0833 7.1665 33.6833 9.78317 33.6833 12.9998C33.6833 16.1498 31.1833 18.7165 28.0666 18.8332C27.9333 18.8165 27.7833 18.8165 27.6333 18.8332" stroke="#246BFD" stroke-width="2.5" stroke-linecap="round" stroke-linejoin="round"/>
<path d="M7.4332 24.7665C3.39987 27.4665 3.39987 31.8665 7.4332 34.5498C12.0165 37.6165 19.5332 37.6165 24.1165 34.5498C28.1499 31.8498 28.1499 27.4498 24.1165 24.7665C19.5499 21.7165 12.0332 21.7165 7.4332 24.7665Z" stroke="#246BFD" stroke-width="2.5" stroke-linecap="round" stroke-linejoin="round"/>
<path d="M31.0669 33.8331C32.2669 33.5831 33.4002 33.0998 34.3336 32.3831C36.9336 30.4331 36.9336 27.2165 34.3336 25.2665C33.4169 24.5665 32.3002 24.0998 31.1169 23.8331" stroke="#246BFD" stroke-width="2.5" stroke-linecap="round" stroke-linejoin="round"/>
</svg>
