<svg width="40" height="41" viewBox="0 0 40 41" fill="none" xmlns="http://www.w3.org/2000/svg">
<path d="M36.1 17.8998L34.4666 24.8665C33.0666 30.8832 30.3 33.3165 25.1 32.8165C24.2666 32.7498 23.3666 32.5999 22.4 32.3665L19.6 31.6998C12.65 30.0498 10.5 26.6165 12.1333 19.6499L13.7666 12.6665C14.1 11.2499 14.5 10.0165 15 8.99985C16.95 4.96652 20.2666 3.88318 25.8333 5.19985L28.6166 5.84985C35.6 7.48318 37.7333 10.9332 36.1 17.8998Z" stroke="#246BFD" stroke-width="2.5" stroke-linecap="round" stroke-linejoin="round"/>
<path d="M25.1001 32.8167C24.0667 33.5167 22.7667 34.1 21.1834 34.6167L18.5501 35.4833C11.9334 37.6167 8.45008 35.8333 6.30008 29.2167L4.16675 22.6333C2.03341 16.0167 3.80008 12.5167 10.4167 10.3833L13.0501 9.51667C13.7334 9.3 14.3834 9.11667 15.0001 9C14.5001 10.0167 14.1001 11.25 13.7667 12.6667L12.1334 19.65C10.5001 26.6167 12.6501 30.05 19.6001 31.7L22.4001 32.3667C23.3667 32.6 24.2667 32.75 25.1001 32.8167Z" stroke="#246BFD" stroke-width="2.5" stroke-linecap="round" stroke-linejoin="round"/>
<path d="M21.0664 14.7163L29.1497 16.7663" stroke="#246BFD" stroke-width="2.5" stroke-linecap="round" stroke-linejoin="round"/>
<path d="M19.4331 21.1665L24.2664 22.3998" stroke="#246BFD" stroke-width="2.5" stroke-linecap="round" stroke-linejoin="round"/>
</svg>
