<svg width="40" height="41" viewBox="0 0 40 41" fill="none" xmlns="http://www.w3.org/2000/svg">
<path d="M28.333 35.5H11.6663C4.99967 35.5 3.33301 33.8333 3.33301 27.1667V13.8333C3.33301 7.16667 4.99967 5.5 11.6663 5.5H28.333C34.9997 5.5 36.6663 7.16667 36.6663 13.8333V27.1667C36.6663 33.8333 34.9997 35.5 28.333 35.5Z" stroke="#246BFD" stroke-width="2.5" stroke-linecap="round" stroke-linejoin="round"/>
<path d="M23.333 13.8335H31.6663" stroke="#246BFD" stroke-width="2.5" stroke-linecap="round" stroke-linejoin="round"/>
<path d="M24.9995 20.5H31.6662" stroke="#246BFD" stroke-width="2.5" stroke-linecap="round" stroke-linejoin="round"/>
<path d="M28.333 27.167H31.6663" stroke="#246BFD" stroke-width="2.5" stroke-linecap="round" stroke-linejoin="round"/>
<path d="M14.1661 19.3165C15.8321 19.3165 17.1827 17.9659 17.1827 16.2999C17.1827 14.6338 15.8321 13.2832 14.1661 13.2832C12.5 13.2832 11.1494 14.6338 11.1494 16.2999C11.1494 17.9659 12.5 19.3165 14.1661 19.3165Z" stroke="#246BFD" stroke-width="2.5" stroke-linecap="round" stroke-linejoin="round"/>
<path d="M19.9997 27.7164C19.7663 25.2998 17.8497 23.3998 15.433 23.1831C14.5997 23.0998 13.7497 23.0998 12.8997 23.1831C10.483 23.4164 8.56634 25.2998 8.33301 27.7164" stroke="#246BFD" stroke-width="2.5" stroke-linecap="round" stroke-linejoin="round"/>
</svg>
