<svg width="41" height="41" viewBox="0 0 41 41" fill="none" xmlns="http://www.w3.org/2000/svg">
<path fill-rule="evenodd" clip-rule="evenodd" d="M14.747 4.81478C15.462 4.79651 16.2489 4.91651 16.9169 5.24422L16.9246 5.24797L16.9246 5.24799L25.6746 9.61466L25.6838 9.61928L25.6838 9.61932C25.8896 9.72417 26.243 9.80438 26.6674 9.79199C27.0911 9.77962 27.4447 9.67899 27.6483 9.56329L27.6485 9.56318L31.5615 7.33197L31.5629 7.33113C33.1645 6.41363 34.9071 6.18576 36.3274 7.01047C37.7478 7.83522 38.4164 9.46332 38.4164 11.3165V27.5331C38.4164 28.3434 38.1342 29.1513 37.7482 29.813C37.3619 30.4752 36.8007 31.1126 36.1117 31.5136L36.1043 31.5178L36.1043 31.5178L28.8877 35.6511L28.8843 35.6531C28.2328 36.0235 27.4498 36.1832 26.7358 36.2015C26.0208 36.2197 25.2339 36.0997 24.5659 35.772L24.5565 35.7674L24.5565 35.7674L15.8065 31.3841L15.799 31.3803L15.799 31.3803C15.5932 31.2754 15.2398 31.1952 14.8154 31.2076C14.3921 31.2199 14.0387 31.3204 13.8351 31.436L13.8343 31.4364L9.92134 33.6676L9.92011 33.6683C8.31849 34.5859 6.5758 34.8139 5.1554 33.9891C3.735 33.1644 3.06641 31.5363 3.06641 29.6831V13.4665C3.06641 12.667 3.34288 11.8639 3.72757 11.2025C4.11272 10.5404 4.67646 9.89975 5.37903 9.49812L5.37957 9.49782L12.5952 5.3651L12.5985 5.36318C13.25 4.99274 14.033 4.83302 14.747 4.81478ZM6.62099 11.6678L13.5166 7.71835V28.8332C13.5166 28.8518 13.517 28.8703 13.5178 28.8888C13.1966 28.9774 12.8845 29.1006 12.5985 29.2632L12.5972 29.2639L8.68056 31.4972L8.67814 31.4986C7.54676 32.1471 6.79832 32.0522 6.41074 31.8271C6.02281 31.6019 5.56641 30.9967 5.56641 29.6831V13.4665C5.56641 13.2159 5.66493 12.844 5.88858 12.4595C6.11166 12.076 6.3894 11.8001 6.61991 11.6684L6.62099 11.6678ZM16.9295 29.1505C16.6416 29.0043 16.3322 28.8987 16.0166 28.8273V7.58886L24.5541 11.8495C24.8419 11.9955 25.151 12.101 25.4663 12.1723V33.427L16.9338 29.1527L16.9295 29.1505ZM27.9663 33.2978L34.8545 29.3527L34.8574 29.3509C35.0845 29.2178 35.3635 28.9394 35.5888 28.5533C35.8153 28.1649 35.9164 27.7895 35.9164 27.5331V11.3165C35.9164 10.0029 35.46 9.39769 35.0721 9.17244C34.6845 8.9474 33.9361 8.85247 32.8047 9.50094L32.8023 9.50233L28.8856 11.7357L28.8843 11.7364C28.5987 11.8988 28.2871 12.0218 27.9663 12.1104V33.2978Z" fill="#246BFD"/>
</svg>
