<svg width="41" height="41" viewBox="0 0 41 41" fill="none" xmlns="http://www.w3.org/2000/svg">
<path d="M15.7663 18.6173C15.5996 18.6007 15.3996 18.6007 15.2163 18.6173C11.2496 18.484 8.09961 15.234 8.09961 11.234C8.09961 7.15065 11.3996 3.83398 15.4996 3.83398C19.5829 3.83398 22.8996 7.15065 22.8996 11.234C22.8829 15.234 19.7329 18.484 15.7663 18.6173Z" stroke="#246BFD" stroke-width="2.5" stroke-linecap="round" stroke-linejoin="round"/>
<path d="M27.8505 7.16602C31.0838 7.16602 33.6838 9.78268 33.6838 12.9993C33.6838 16.1493 31.1838 18.716 28.0671 18.8327C27.9338 18.816 27.7838 18.816 27.6338 18.8327" stroke="#246BFD" stroke-width="2.5" stroke-linecap="round" stroke-linejoin="round"/>
<path d="M7.4332 24.766C3.39987 27.466 3.39987 31.866 7.4332 34.5493C12.0165 37.616 19.5332 37.616 24.1165 34.5493C28.1499 31.8493 28.1499 27.4493 24.1165 24.766C19.5499 21.716 12.0332 21.716 7.4332 24.766Z" stroke="#246BFD" stroke-width="2.5" stroke-linecap="round" stroke-linejoin="round"/>
<path d="M31.0664 33.834C32.2664 33.584 33.3997 33.1006 34.3331 32.384C36.9331 30.434 36.9331 27.2173 34.3331 25.2673C33.4164 24.5673 32.2997 24.1007 31.1164 23.834" stroke="#246BFD" stroke-width="2.5" stroke-linecap="round" stroke-linejoin="round"/>
</svg>
