<svg width="40" height="41" viewBox="0 0 40 41" fill="none" xmlns="http://www.w3.org/2000/svg">
<path d="M14.4497 23.8335H6.66634C4.83301 23.8335 3.33301 25.3335 3.33301 27.1668V37.1668H14.4497V23.8335Z" stroke="#246BFD" stroke-width="2.5" stroke-miterlimit="10" stroke-linecap="round" stroke-linejoin="round"/>
<path d="M22.216 17.1665H17.766C15.9326 17.1665 14.4326 18.6665 14.4326 20.4998V37.1665H25.5493V20.4998C25.5493 18.6665 24.066 17.1665 22.216 17.1665Z" stroke="#246BFD" stroke-width="2.5" stroke-miterlimit="10" stroke-linecap="round" stroke-linejoin="round"/>
<path d="M33.3331 28.8335H25.5498V37.1668H36.6665V32.1668C36.6665 30.3335 35.1665 28.8335 33.3331 28.8335Z" stroke="#246BFD" stroke-width="2.5" stroke-miterlimit="10" stroke-linecap="round" stroke-linejoin="round"/>
<path d="M20.8666 3.94971L21.7499 5.71637C21.8666 5.96637 22.1832 6.1997 22.4499 6.23303L24.0499 6.4997C25.0666 6.66637 25.3166 7.41634 24.5832 8.133L23.3332 9.383C23.1166 9.59967 22.9999 9.99968 23.0666 10.283L23.4166 11.8164C23.6999 13.033 23.0499 13.4997 21.9832 12.8664L20.4832 11.9831C20.2166 11.8164 19.7666 11.8164 19.4999 11.9831L17.9999 12.8664C16.9332 13.4997 16.2832 13.033 16.5666 11.8164L16.9166 10.283C16.9832 9.99968 16.8666 9.583 16.6499 9.383L15.4166 8.14969C14.6832 7.41635 14.9166 6.683 15.9499 6.51634L17.5499 6.24971C17.8166 6.19971 18.1332 5.96638 18.2499 5.73305L19.1332 3.96634C19.6166 2.99967 20.3832 2.99971 20.8666 3.94971Z" stroke="#246BFD" stroke-width="2.5" stroke-linecap="round" stroke-linejoin="round"/>
</svg>
