<svg width="41" height="41" viewBox="0 0 41 41" fill="none" xmlns="http://www.w3.org/2000/svg">
<path d="M30.7333 36.5334C29.2666 36.9667 27.5333 37.1667 25.4999 37.1667H15.4999C13.4666 37.1667 11.7333 36.9667 10.2666 36.5334C10.6333 32.2 15.0833 28.7833 20.4999 28.7833C25.9166 28.7833 30.3666 32.2 30.7333 36.5334Z" stroke="#246BFD" stroke-width="2.5" stroke-linecap="round" stroke-linejoin="round"/>
<path d="M25.5002 3.83337H15.5002C7.16683 3.83337 3.8335 7.16671 3.8335 15.5V25.5C3.8335 31.8 5.7335 35.25 10.2668 36.5334C10.6335 32.2 15.0835 28.7833 20.5002 28.7833C25.9168 28.7833 30.3668 32.2 30.7335 36.5334C35.2668 35.25 37.1668 31.8 37.1668 25.5V15.5C37.1668 7.16671 33.8335 3.83337 25.5002 3.83337ZM20.5002 24.1167C17.2002 24.1167 14.5335 21.4334 14.5335 18.1334C14.5335 14.8334 17.2002 12.1667 20.5002 12.1667C23.8002 12.1667 26.4668 14.8334 26.4668 18.1334C26.4668 21.4334 23.8002 24.1167 20.5002 24.1167Z" stroke="#246BFD" stroke-width="2.5" stroke-linecap="round" stroke-linejoin="round"/>
<path d="M26.4665 18.1333C26.4665 21.4333 23.7999 24.1166 20.4999 24.1166C17.1999 24.1166 14.5332 21.4333 14.5332 18.1333C14.5332 14.8333 17.1999 12.1666 20.4999 12.1666C23.7999 12.1666 26.4665 14.8333 26.4665 18.1333Z" stroke="#246BFD" stroke-width="2.5" stroke-linecap="round" stroke-linejoin="round"/>
</svg>
