<svg width="24" height="24" viewBox="0 0 24 24" fill="none" xmlns="http://www.w3.org/2000/svg">
<path d="M7.16602 23.6666C6.52435 23.6666 5.97504 23.4381 5.5181 22.9812C5.06115 22.5242 4.83268 21.9749 4.83268 21.3333C4.83268 20.6916 5.06115 20.1423 5.5181 19.6853C5.97504 19.2284 6.52435 18.9999 7.16602 18.9999C7.80768 18.9999 8.35699 19.2284 8.81393 19.6853C9.27088 20.1423 9.49935 20.6916 9.49935 21.3333C9.49935 21.9749 9.27088 22.5242 8.81393 22.9812C8.35699 23.4381 7.80768 23.6666 7.16602 23.6666ZM18.8327 23.6666C18.191 23.6666 17.6417 23.4381 17.1848 22.9812C16.7278 22.5242 16.4993 21.9749 16.4993 21.3333C16.4993 20.6916 16.7278 20.1423 17.1848 19.6853C17.6417 19.2284 18.191 18.9999 18.8327 18.9999C19.4743 18.9999 20.0237 19.2284 20.4806 19.6853C20.9375 20.1423 21.166 20.6916 21.166 21.3333C21.166 21.9749 20.9375 22.5242 20.4806 22.9812C20.0237 23.4381 19.4743 23.6666 18.8327 23.6666ZM6.17435 4.99992L8.97435 10.8333H17.141L20.3493 4.99992H6.17435ZM5.06602 2.66659H22.2743C22.7216 2.66659 23.0618 2.86589 23.2952 3.2645C23.5285 3.66311 23.5382 4.06659 23.3243 4.47492L19.1827 11.9416C18.9688 12.3305 18.682 12.6319 18.3223 12.8458C17.9625 13.0596 17.5688 13.1666 17.141 13.1666H8.44935L7.16602 15.4999H21.166V17.8333H7.16602C6.29102 17.8333 5.6299 17.4492 5.18268 16.6812C4.73546 15.9131 4.71602 15.1499 5.12435 14.3916L6.69935 11.5333L2.49935 2.66659H0.166016V0.333252H3.95768L5.06602 2.66659Z" fill="white"/>
</svg>
