<svg width="41" height="41" viewBox="0 0 41 41" fill="none" xmlns="http://www.w3.org/2000/svg">
<path d="M17.2495 4.71746L7.21621 11.2675C3.99954 13.3675 3.99954 18.0675 7.21621 20.1675L17.2495 26.7175C19.0495 27.9008 22.0162 27.9008 23.8162 26.7175L33.7995 20.1675C36.9995 18.0675 36.9995 13.3841 33.7995 11.2841L23.8162 4.73413C22.0162 3.53413 19.0495 3.53413 17.2495 4.71746Z" stroke="#246BFD" stroke-width="2.5" stroke-linecap="round" stroke-linejoin="round"/>
<path d="M9.88385 22.3008L9.86719 30.1174C9.86719 32.2341 11.5005 34.5008 13.5005 35.1674L18.8172 36.9341C19.7339 37.2341 21.2505 37.2341 22.1839 36.9341L27.5005 35.1674C29.5005 34.5008 31.1339 32.2341 31.1339 30.1174V22.3841" stroke="#246BFD" stroke-width="2.5" stroke-linecap="round" stroke-linejoin="round"/>
<path d="M36.167 25.5V15.5" stroke="#246BFD" stroke-width="2.5" stroke-linecap="round" stroke-linejoin="round"/>
</svg>
