<svg width="42" height="40" viewBox="0 0 42 40" fill="none" xmlns="http://www.w3.org/2000/svg">
<path d="M40.1034 24.95C39.7056 24.95 39.3241 25.108 39.0428 25.3893C38.7615 25.6706 38.6034 26.0521 38.6034 26.45V31.5725C38.6034 32.7799 38.1238 33.9378 37.27 34.7916C36.4163 35.6453 35.2583 36.125 34.0509 36.125H7.95094C6.74354 36.125 5.58559 35.6453 4.73183 34.7916C3.87807 33.9378 3.39844 32.7799 3.39844 31.5725V26.45C3.39844 26.0521 3.2404 25.6706 2.9591 25.3893C2.67779 25.108 2.29626 24.95 1.89844 24.95C1.50061 24.95 1.11908 25.108 0.837777 25.3893C0.556473 25.6706 0.398438 26.0521 0.398438 26.45V31.5725C0.400423 33.5749 1.19677 35.4947 2.61271 36.9107C4.02864 38.3266 5.9485 39.123 7.95094 39.125H34.0509C36.0534 39.123 37.9732 38.3266 39.3892 36.9107C40.8051 35.4947 41.6015 33.5749 41.6034 31.5725V26.45C41.6034 26.0521 41.4454 25.6706 41.1641 25.3893C40.8828 25.108 40.5013 24.95 40.1034 24.95Z" fill="#121212"/>
<path d="M13.5011 11.9749L19.5011 5.97492V28.2499C19.5011 28.6478 19.6591 29.0293 19.9404 29.3106C20.2217 29.5919 20.6032 29.7499 21.0011 29.7499C21.3989 29.7499 21.7804 29.5919 22.0617 29.3106C22.343 29.0293 22.5011 28.6478 22.5011 28.2499V5.99742L28.5011 11.9974C28.6404 12.1368 28.8059 12.2473 28.988 12.3228C29.1701 12.3982 29.3652 12.437 29.5623 12.437C29.7594 12.437 29.9546 12.3982 30.1367 12.3228C30.3188 12.2473 30.4842 12.1368 30.6236 11.9974C30.7629 11.8581 30.8735 11.6926 30.9489 11.5105C31.0243 11.3284 31.0631 11.1333 31.0631 10.9362C31.0631 10.7391 31.0243 10.5439 30.9489 10.3618C30.8735 10.1797 30.7629 10.0143 30.6236 9.87492L22.0661 1.31742C21.8576 1.11517 21.5985 0.972697 21.3161 0.904924C21.0733 0.860235 20.8234 0.874367 20.5872 0.946136C20.351 1.0179 20.1354 1.14522 19.9586 1.31742L11.4011 9.85242C11.1629 10.139 11.04 10.5039 11.0561 10.8761C11.0722 11.2484 11.2263 11.6013 11.4884 11.8661C11.7504 12.131 12.1017 12.2889 12.4737 12.309C12.8458 12.3291 13.212 12.21 13.5011 11.9749Z" fill="#121212"/>
</svg>
