<svg width="25" height="25" viewBox="0 0 25 25" fill="none" xmlns="http://www.w3.org/2000/svg">
<path d="M18.6399 22.12C17.7599 22.38 16.7199 22.5 15.4999 22.5H9.49986C8.27986 22.5 7.23986 22.38 6.35986 22.12C6.57986 19.52 9.24986 17.47 12.4999 17.47C15.7499 17.47 18.4199 19.52 18.6399 22.12Z" stroke="#F9F5FF" stroke-width="1.5" stroke-linecap="round" stroke-linejoin="round"/>
<path d="M15.5 2.5H9.5C4.5 2.5 2.5 4.5 2.5 9.5V15.5C2.5 19.28 3.64 21.35 6.36 22.12C6.58 19.52 9.25 17.47 12.5 17.47C15.75 17.47 18.42 19.52 18.64 22.12C21.36 21.35 22.5 19.28 22.5 15.5V9.5C22.5 4.5 20.5 2.5 15.5 2.5ZM12.5 14.67C10.52 14.67 8.92 13.06 8.92 11.08C8.92 9.10002 10.52 7.5 12.5 7.5C14.48 7.5 16.08 9.10002 16.08 11.08C16.08 13.06 14.48 14.67 12.5 14.67Z" stroke="#F9F5FF" stroke-width="1.5" stroke-linecap="round" stroke-linejoin="round"/>
<path d="M16.0799 11.08C16.0799 13.06 14.4799 14.67 12.4999 14.67C10.5199 14.67 8.91992 13.06 8.91992 11.08C8.91992 9.10002 10.5199 7.5 12.4999 7.5C14.4799 7.5 16.0799 9.10002 16.0799 11.08Z" stroke="#F9F5FF" stroke-width="1.5" stroke-linecap="round" stroke-linejoin="round"/>
</svg>
