<svg width="24" height="26" viewBox="0 0 24 26" fill="none" xmlns="http://www.w3.org/2000/svg">
<g id="lock">
<path id="Vector" d="M19 11.958H5C3.89543 11.958 3 12.8907 3 14.0413V21.333C3 22.4836 3.89543 23.4163 5 23.4163H19C20.1046 23.4163 21 22.4836 21 21.333V14.0413C21 12.8907 20.1046 11.958 19 11.958Z" stroke="white" stroke-width="2" stroke-linecap="round" stroke-linejoin="round"/>
<path id="Vector_2" d="M7 11.958V7.79134C7 6.41001 7.52678 5.08525 8.46447 4.10849C9.40215 3.13174 10.6739 2.58301 12 2.58301C13.3261 2.58301 14.5979 3.13174 15.5355 4.10849C16.4732 5.08525 17 6.41001 17 7.79134V11.958" stroke="white" stroke-width="2" stroke-linecap="round" stroke-linejoin="round"/>
</g>
</svg>
